<?xml version="1.0" encoding="utf-8"?><svg xmlns="http://www.w3.org/2000/svg" xmlns:xlink="http://www.w3.org/1999/xlink"><symbol viewBox="0 0 13 16" id="contacts-address"><path d="M6.497 0C2.915 0 0 2.878 0 6.413a6.234 6.234 0 0 0 .16 1.42c.098.432.244.858.435 1.264.7 1.627 2.239 4.126 5.616 6.802a.465.465 0 0 0 .578 0c3.374-2.676 4.916-5.175 5.616-6.802a6.187 6.187 0 0 0 .48-1.48c.074-.395.115-.801.115-1.204C12.993 2.878 10.078 0 6.497 0zm5.477 7.46c0 .007-.004.013-.004.02a8.42 8.42 0 0 1-.03.144v.007c-.085.376-.21.741-.377 1.094-.004.003-.004.01-.007.013-.635 1.486-2.029 3.753-5.06 6.226-3.03-2.473-4.423-4.74-5.059-6.226-.003-.003-.003-.01-.007-.013a5.63 5.63 0 0 1-.377-1.094v-.007c-.02-.077-.027-.127-.03-.144 0-.007-.004-.013-.004-.023A5.41 5.41 0 0 1 .917 6.41c0-3.036 2.505-5.508 5.58-5.508s5.579 2.472 5.579 5.508c0 .356-.034.708-.102 1.05z"/><path d="M6.497 2.412c-2.274 0-4.125 1.828-4.125 4.072 0 2.244 1.851 4.072 4.125 4.072 2.273 0 4.124-1.828 4.124-4.072 0-2.244-1.851-4.072-4.124-4.072zm0 7.238c-1.77 0-3.208-1.422-3.208-3.166 0-1.745 1.44-3.167 3.208-3.167 1.766 0 3.207 1.422 3.207 3.167 0 1.744-1.437 3.166-3.207 3.166z"/></symbol><symbol viewBox="0 0 15 15" id="contacts-clock"><path d="M5.114 3.75a.34.34 0 1 0 0-.682.34.34 0 0 0 0 .682zm4.774 8.183a.34.34 0 1 0 0-.682.34.34 0 0 0 0 .682zM3.41 5.455a.34.34 0 1 0 0-.682.34.34 0 0 0 0 .682zm8.18 4.773a.34.34 0 1 0 0-.682.34.34 0 0 0 0 .682zM9.886 3.749a.34.34 0 1 0 0-.682.34.34 0 0 0 0 .682zm-4.773 8.183a.34.34 0 1 0 0-.681.34.34 0 0 0 0 .681zm6.477-6.477a.34.34 0 1 0 0-.682.34.34 0 0 0 0 .682zm-8.18 4.772a.34.34 0 1 0-.001-.682.34.34 0 0 0 0 .682z"/><path d="M7.5 0C3.375 0 0 3.375 0 7.5S3.375 15 7.5 15c.205 0 .34-.136.34-.34 0-.205-.135-.342-.34-.342C3.75 14.318.682 11.25.682 7.5.682 3.75 3.75.682 7.5.682c3.75 0 6.818 3.068 6.818 6.818a6.796 6.796 0 0 1-5.523 6.682.354.354 0 0 0-.272.409c.034.205.204.307.409.273A7.52 7.52 0 0 0 15 7.5C15 3.375 11.625 0 7.5 0z"/><path d="M8.932 1.534c-.17-.034-.375.068-.41.239-.033.17.069.375.24.409a5.515 5.515 0 0 1 4.192 4.977h-.681c-.205 0-.341.137-.341.341 0 .205.136.341.34.341h.648a5.435 5.435 0 0 1-5.08 5.08v-.648c0-.205-.135-.341-.34-.341-.205 0-.34.136-.34.34v.649a5.435 5.435 0 0 1-5.08-5.08h.647c.205 0 .341-.136.341-.34 0-.205-.136-.342-.34-.342h-.683c.17-2.727 2.387-4.943 5.114-5.113v.681c0 .205.136.341.341.341.204 0 .34-.136.34-.34V1.704c0-.205-.136-.341-.34-.341-3.375 0-6.136 2.761-6.136 6.136s2.761 6.136 6.136 6.136 6.136-2.76 6.136-6.136c0-2.83-1.943-5.284-4.704-5.966z"/><path d="M10.466 9.988L8.42 7.943a.944.944 0 0 0 .103-.443.993.993 0 0 0-.682-.955V4.773c0-.205-.136-.341-.341-.341-.205 0-.34.136-.34.34v1.773a.993.993 0 0 0-.683.955c0 .58.443 1.023 1.023 1.023.17 0 .307-.035.443-.103l2.046 2.046c.068.068.17.102.238.102a.37.37 0 0 0 .239-.102.33.33 0 0 0 0-.478zM7.5 7.841c-.205 0-.34-.137-.34-.341 0-.205.135-.341.34-.341.205 0 .34.136.34.34 0 .205-.135.342-.34.342z"/></symbol><symbol viewBox="0 0 24 25" id="contacts-email"><path d="M20.412 4.092A11.822 11.822 0 0 0 12 .609a11.822 11.822 0 0 0-8.412 3.483A11.81 11.81 0 0 0 .103 12.5a11.81 11.81 0 0 0 3.485 8.407A11.822 11.822 0 0 0 12 24.39c1.606 0 3.164-.315 4.63-.935l-.572-1.355c-1.285.543-2.65.819-4.058.819-5.748 0-10.425-4.674-10.425-10.42C1.575 6.755 6.252 2.08 12 2.08c5.748 0 10.425 4.674 10.425 10.42 0 2.516-1.547 3.662-2.985 3.662-1.437 0-2.984-1.146-2.984-3.662A4.46 4.46 0 0 0 12 8.046 4.46 4.46 0 0 0 7.544 12.5 4.46 4.46 0 0 0 12 16.953c1.455 0 2.749-.7 3.563-1.781.208.42.47.8.786 1.133a4.23 4.23 0 0 0 3.091 1.328 4.23 4.23 0 0 0 3.091-1.328c.893-.938 1.366-2.254 1.366-3.805a11.81 11.81 0 0 0-3.485-8.408zM12 15.482A2.987 2.987 0 0 1 9.016 12.5 2.987 2.987 0 0 1 12 9.517a2.987 2.987 0 0 1 2.984 2.983A2.987 2.987 0 0 1 12 15.482z"/></symbol><symbol viewBox="0 0 17 17" id="contacts-product"><path d="M13.435 10.041L9.424 7.286l-.111-.107c-.125-.117-.125-.117-.125-.324 0-.302.205-.477.539-.738.354-.276.794-.621.794-1.262 0-.92-.748-1.667-1.666-1.667a1.67 1.67 0 0 0-1.667 1.667.333.333 0 0 0 .667 0 1.001 1.001 0 0 1 2 0c0 .3-.206.476-.539.737-.354.277-.795.621-.795 1.263 0 .446.108.596.335.809l4.194 2.92a.324.324 0 0 1 .12.373.325.325 0 0 1-.317.23H4.19a.323.323 0 0 1-.317-.23.323.323 0 0 1 .12-.372l3.391-2.46a.334.334 0 0 0-.391-.54L3.6 10.047a.985.985 0 0 0-.363 1.118c.137.419.51.69.951.69h8.664a.987.987 0 0 0 .952-.691.988.988 0 0 0-.37-1.123z"/><path d="M8.521.522c-4.41 0-8 3.588-8 8 0 4.411 3.59 8 8 8 4.412 0 8-3.589 8-8 0-4.412-3.588-8-8-8zm0 15.333c-4.043 0-7.333-3.29-7.333-7.333 0-4.044 3.29-7.334 7.333-7.334 4.044 0 7.334 3.29 7.334 7.334 0 4.043-3.29 7.333-7.334 7.333z"/></symbol><symbol viewBox="0 0 14 15" id="contacts-tel"><path d="M9.92 14.994c.063.003.123.006.187.006.675 0 1.238-.261 1.68-.775l.012-.012c.158-.203.336-.388.526-.581.13-.133.261-.268.385-.41.589-.658.586-1.491-.006-2.124l-1.638-1.753c-.281-.314-.618-.48-.974-.48-.353 0-.692.163-.983.473l-.968 1.037c-.086-.053-.175-.099-.262-.145a3.91 3.91 0 0 1-.298-.172c-.888-.603-1.693-1.39-2.463-2.402-.388-.523-.644-.96-.825-1.408.253-.246.489-.501.716-.75.083-.09.166-.182.253-.274.615-.658.615-1.473 0-2.128l-.814-.87c-.094-.102-.186-.204-.278-.302-.181-.197-.368-.403-.555-.587C3.333 1.035 3 .878 2.647.878c-.35 0-.69.157-.983.459L.644 2.425c-.374.4-.586.886-.632 1.449-.052.7.069 1.445.379 2.343.48 1.387 1.201 2.676 2.27 4.053 1.302 1.66 2.865 2.974 4.652 3.9.681.347 1.592.753 2.607.824zM3.204 9.787c-1.017-1.31-1.698-2.527-2.15-3.831-.278-.803-.381-1.427-.338-2.02.031-.385.17-.705.428-.979l1.014-1.085c.155-.16.325-.243.492-.243.163 0 .324.083.48.246.18.181.356.372.54.572.092.101.186.206.284.307l.813.87c.334.357.334.708 0 1.065-.086.092-.172.184-.255.276-.253.274-.489.532-.75.782l-.015.015c-.233.249-.198.489-.14.667.002.01.005.016.008.025.21.541.506 1.055.96 1.67.819 1.08 1.68 1.919 2.635 2.567.118.08.241.148.362.213.11.058.21.114.299.172l.031.018a.57.57 0 0 0 .273.074.566.566 0 0 0 .417-.206l1.02-1.092c.155-.166.322-.252.486-.252.201 0 .365.136.471.252l1.644 1.76c.402.43.218.817-.009 1.073-.115.132-.235.255-.362.387-.192.197-.39.403-.572.634-.31.357-.678.522-1.158.522-.046 0-.095-.003-.14-.006-.894-.061-1.722-.433-2.345-.75-1.702-.876-3.187-2.122-4.423-3.703zm4.492-7.042a.355.355 0 0 0-.406.308c-.031.206.098.4.288.433.79.145 1.508.545 2.083 1.157a4.226 4.226 0 0 1 1.08 2.23.36.36 0 0 0 .348.313c.02 0 .04-.003.06-.006.193-.034.322-.231.288-.434a4.98 4.98 0 0 0-1.276-2.636 4.458 4.458 0 0 0-2.465-1.365zm5.951 4.312c.02 0 .04-.003.06-.007.193-.033.322-.23.287-.433a8.223 8.223 0 0 0-2.109-4.355C10.765 1.066 9.36.285 7.813.005a.355.355 0 0 0-.405.308c-.031.206.098.4.288.433 1.399.255 2.675.963 3.69 2.048a7.475 7.475 0 0 1 1.913 3.949.36.36 0 0 0 .348.314z"/></symbol><symbol viewBox="0 0 139.4 44.7" id="dorohovdesign"><path d="M52.2 19.5V8.1H57c3.6 0 6.1 2.1 6.1 5.7 0 3.5-2.6 5.7-6.1 5.7h-4.8zm7.9-5.7c0-1.8-1.1-3.1-3.1-3.1h-1.9v6.2H57c2 0 3.1-1.4 3.1-3.1m4.1 0c0-3.4 2.6-5.9 6.1-5.9 3.5 0 6.1 2.4 6.1 5.9 0 3.5-2.6 5.9-6.1 5.9-3.5 0-6.1-2.4-6.1-5.9m9.2 0c0-1.9-1.2-3.3-3.1-3.3-1.9 0-3.1 1.4-3.1 3.3 0 1.8 1.2 3.3 3.1 3.3 1.9 0 3.1-1.4 3.1-3.3m11 5.7l-1.9-3.8H81v3.8h-2.9V8.1h5.7c2.5 0 3.9 1.7 3.9 3.8 0 2-1.2 3-2.3 3.4l2.3 4.2h-3.3zm.3-7.6c0-.8-.6-1.2-1.4-1.2H81v2.4h2.3c.8 0 1.4-.4 1.4-1.2m4.2 1.9c0-3.4 2.6-5.9 6.1-5.9 3.5 0 6.1 2.4 6.1 5.9 0 3.5-2.6 5.9-6.1 5.9-3.5 0-6.1-2.4-6.1-5.9m9.1 0c0-1.9-1.2-3.3-3.1-3.3-1.9 0-3.1 1.4-3.1 3.3 0 1.8 1.2 3.3 3.1 3.3 1.9 0 3.1-1.4 3.1-3.3m12.4 5.7v-4.6h-4.7v4.6h-3V8.1h3v4.3h4.7V8.1h2.9v11.4zm4.6-5.7c0-3.4 2.6-5.9 6.1-5.9 3.5 0 6.1 2.4 6.1 5.9 0 3.5-2.6 5.9-6.1 5.9-3.5 0-6.1-2.4-6.1-5.9m9.2 0c0-1.9-1.2-3.3-3.1-3.3-1.9 0-3.1 1.4-3.1 3.3 0 1.8 1.2 3.3 3.1 3.3 1.9 0 3.1-1.4 3.1-3.3m7.3 5.7l-4.3-11.4h3.3l2.8 8.2 2.8-8.2h3.3l-4.2 11.4zm-79.3 17V25.1H57c3.6 0 6.1 2.1 6.1 5.7 0 3.5-2.6 5.7-6.1 5.7h-4.8zm7.9-5.7c0-1.8-1.1-3.1-3.1-3.1h-1.9v6.2H57c2 0 3.1-1.4 3.1-3.1m4.7 5.7V25.1h8.3v2.6h-5.3v1.8H73V32h-5.2v1.9h5.3v2.6zm9.6-1.6l1.5-2.2c.8.8 2.1 1.5 3.6 1.5 1 0 1.6-.4 1.6-.9 0-1.5-6.4-.3-6.4-4.7 0-1.9 1.6-3.6 4.5-3.6 1.8 0 3.4.5 4.6 1.6l-1.6 2.1c-1-.8-2.2-1.2-3.3-1.2-.8 0-1.2.3-1.2.8 0 1.4 6.4.4 6.4 4.6 0 2.3-1.7 3.8-4.7 3.8-2.2 0-3.8-.7-5-1.8m11.5-9.8h2.9v11.3h-2.9zm4.7 5.7c0-3.6 2.8-5.9 6.1-5.9 2.5 0 4.1 1.3 4.8 2.8L99.1 29c-.4-.7-1.3-1.4-2.4-1.4-1.9 0-3.2 1.4-3.2 3.3s1.3 3.3 3.2 3.3c.8 0 1.7-.3 2.1-.7v-.9h-2.6V30h5.5v4.5c-1.2 1.3-2.9 2.2-5 2.2-3.4 0-6.1-2.3-6.1-5.9m20.9 5.7l-4.8-6.6v6.6h-2.9V25.1h3l4.6 6.3v-6.3h2.9v11.4zM17.7 0H0v44.7h17.8c15 0 24.6-8.8 24.6-22.4C42.4 8.7 32.7 0 17.7 0m-.4 35.7h-8V9.5h8c9.3 0 15.7 3.7 15.7 12.7.1 7.5-5.8 13.5-15.7 13.5"/><path d="M19.1 17H17v10.6h2c4 0 6.4-2.4 6.4-5.4 0-3.7-2.6-5.2-6.3-5.2"/></symbol><symbol viewBox="0 0 96.124 96.123" id="fb"><path d="M72.089.02L59.624 0C45.62 0 36.57 9.285 36.57 23.656v10.907H24.037a1.96 1.96 0 0 0-1.96 1.961v15.803a1.96 1.96 0 0 0 1.96 1.96H36.57v39.876a1.96 1.96 0 0 0 1.96 1.96h16.352a1.96 1.96 0 0 0 1.96-1.96V54.287h14.654a1.96 1.96 0 0 0 1.96-1.96l.006-15.803a1.963 1.963 0 0 0-1.961-1.961H56.842v-9.246c0-4.444 1.059-6.7 6.848-6.7l8.397-.003a1.96 1.96 0 0 0 1.959-1.96V1.98A1.96 1.96 0 0 0 72.089.02z"/></symbol><symbol viewBox="0 0 104 100" fill="none" id="icon-adv1"><circle cx="50" cy="50" r="50" fill="#F5EAE4"/><path d="M103.744 78.778a1.469 1.469 0 0 0-.161-.195h-.002L71.583 46.204a7.23 7.23 0 0 1-.889-6.648l1.775-4.871a41.912 41.912 0 0 0 2.53-14.446v-2.896A4.347 4.347 0 0 0 70.65 13h-2.9c-.43 0-.839.19-1.115.52a7.97 7.97 0 0 1-6.135 2.87 7.97 7.97 0 0 1-6.135-2.869A1.451 1.451 0 0 0 53.25 13h-2.9A4.347 4.347 0 0 0 46 17.343v2.993a41.774 41.774 0 0 0 2.532 14.347l1.775 4.872a7.23 7.23 0 0 1-.89 6.648l-32 32.38a1.446 1.446 0 0 0 .211 2.208l15.708 10.816c16.376 11.191 37.954 11.191 54.33 0l15.708-10.816a1.447 1.447 0 0 0 .371-2.013zM86.019 89.22c-15.385 10.51-35.655 10.51-51.04 0l-14.284-9.835L51.56 48.157c.053-.05.101-.106.145-.165a10.107 10.107 0 0 0 1.33-9.425l-1.775-4.871a39.068 39.068 0 0 1-2.36-13.457v-2.896c0-.8.648-1.447 1.45-1.447h2.25a10.863 10.863 0 0 0 7.9 3.39 10.863 10.863 0 0 0 7.899-3.39h2.25c.801 0 1.45.648 1.45 1.447v2.993a38.923 38.923 0 0 1-2.356 13.358l-1.775 4.872a10.107 10.107 0 0 0 1.33 9.425c.043.059.092.114.145.165l30.865 31.228-14.289 9.836z" fill="#5D5D5E"/><path d="M83.7 24.582h2.9v2.896h-2.9z"/><path d="M83.7 24.582h2.9v2.896h-2.9z"/><path d="M86.6 24.582h-2.9v2.895h2.9v-2.895z" fill="#5D5D5E"/><path d="M86.6 27.477h2.9v2.896h-2.9z"/><path d="M86.6 27.477h2.9v2.896h-2.9z"/><path d="M89.5 27.477h-2.9v2.896h2.9v-2.896z" fill="#5D5D5E"/><path d="M80.8 27.477h2.9v2.896h-2.9z"/><path d="M80.8 27.477h2.9v2.896h-2.9z"/><path d="M83.7 27.477h-2.9v2.896h2.9v-2.896z" fill="#5D5D5E"/><path d="M83.7 30.373h2.9v2.896h-2.9z"/><path d="M83.7 30.373h2.9v2.896h-2.9z"/><path d="M86.6 30.373h-2.9v2.896h2.9v-2.895z" fill="#5D5D5E"/><path d="M93.85 14.448h2.9v2.896h-2.9z"/><path d="M93.85 14.448h2.9v2.896h-2.9z"/><path d="M96.75 14.448h-2.9v2.895h2.9v-2.895z" fill="#5D5D5E"/><path d="M38.75 37.612h2.9v2.896h-2.9z"/><path d="M38.75 37.612h2.9v2.896h-2.9z"/><path d="M41.65 37.612h-2.9v2.895h2.9v-2.895z" fill="#5D5D5E"/><path d="M41.65 40.507h2.9v2.896h-2.9z"/><path d="M41.65 40.507h2.9v2.896h-2.9z"/><path d="M44.55 40.507h-2.9v2.896h2.9v-2.896z" fill="#5D5D5E"/><path d="M35.85 40.507h2.9v2.896h-2.9z"/><path d="M35.85 40.507h2.9v2.896h-2.9z"/><path d="M38.75 40.507h-2.9v2.896h2.9v-2.896z" fill="#5D5D5E"/><path d="M38.75 43.403h2.9v2.896h-2.9z"/><path d="M38.75 43.403h2.9v2.896h-2.9z"/><path d="M41.65 43.403h-2.9v2.895h2.9v-2.895z" fill="#5D5D5E"/><path d="M22.8 17.343h2.9v2.896h-2.9z"/><path d="M22.8 17.343h2.9v2.896h-2.9z"/><path d="M25.7 17.343h-2.9v2.896h2.9v-2.896z" fill="#5D5D5E"/><path d="M27.15 56.433h2.9v2.896h-2.9z"/><path d="M27.15 56.433h2.9v2.896h-2.9z"/><path d="M30.05 56.433h-2.9v2.895h2.9v-2.895z" fill="#5D5D5E"/><path d="M89.5 50.641h2.9v2.896h-2.9z"/><path d="M89.5 50.641h2.9v2.896h-2.9z"/><path d="M92.4 50.641h-2.9v2.896h2.9V50.64z" fill="#5D5D5E"/></symbol><symbol viewBox="0 0 104 100" fill="none" id="icon-adv2"><circle cx="50" cy="50" r="50" fill="#F5EAE4"/><path d="M87.91 13.146l-29.734-.14L56.998 13l-1.177.006-29.735.14L10 42.338l46.01 56.448.991 1.214.99-1.214L104 42.338 87.91 13.146zm-33.03 2.15l-17.076 24.79-9.418-24.666 26.494-.124zm-28.32 1.668l9.264 24.26-22.554-.142 13.29-24.118zM13.76 43.37l22.919.144L53.69 92.359l-39.93-48.99zm41.994 48.059L39.07 43.53l16.788.105-.105 47.794zm.11-50.081l-16.11-.1 16.079-23.346.083-.12-.043 19.148-.01 4.418zm44.861-.266l-22.552.14 9.263-24.26 13.289 24.12zM85.61 15.42l-9.42 24.666-17.076-24.79 26.496.124zM58.123 36.93l-.042-19.148.084.12 16.078 23.346-16.109.1-.011-4.417zm.015 6.703l16.787-.105-16.681 47.898-.106-47.793zm2.168 48.726l17.011-48.845 22.92-.144-39.931 48.989z" fill="#5D5D5E"/></symbol><symbol viewBox="0 0 100 100" fill="none" id="icon-adv3"><circle cx="50" cy="50" r="50" fill="#F5EAE4"/><path d="M57.798 42.664a1.275 1.275 0 0 1 1.529-.967 1.29 1.29 0 0 1 .957 1.545c-.3 1.321-.75 2.611-1.337 3.834-1.822 3.796-4.46 8.302-3.503 15.433.214 1.598 1.58 2.803 3.174 2.803h18.763c1.595 0 2.96-1.205 3.174-2.803.951-7.093-1.654-11.58-3.503-15.433-3.054-6.364-2.407-14.109 3.153-20.348a4.916 4.916 0 0 0 1.243-3.275c0-1.399-.987-2.6-2.349-2.855l-2.856-.538c-2.66-.5-4.617-2.779-4.758-5.482h-6.971c-.141 2.703-2.098 4.982-4.758 5.482l-2.857.538a2.897 2.897 0 0 0-2.348 2.855c0 1.211.441 2.374 1.243 3.274 2.538 2.85 4.226 5.948 4.778 10.036a1.287 1.287 0 0 1-1.092 1.451 1.278 1.278 0 0 1-1.436-1.103c-.485-3.59-1.97-6.217-4.146-8.659A7.507 7.507 0 0 1 52 23.453c0-2.64 1.865-4.907 4.433-5.39l2.857-.537a3.308 3.308 0 0 0 2.681-3.26c0-1.25 1.006-2.266 2.242-2.266h7.574c1.236 0 2.242 1.016 2.242 2.266a3.308 3.308 0 0 0 2.681 3.26l2.857.537c2.569.483 4.433 2.75 4.433 5.39 0 2.29-.882 3.858-2.257 5.402a15.532 15.532 0 0 0-2.395 17.096c1.859 3.871 4.801 8.962 3.736 16.905-.385 2.87-2.837 5.035-5.703 5.035h-6.286v20.823a13.365 13.365 0 0 1 7.056 4.313c1.754.167 3.131 1.663 3.131 3.478 0 1.927-1.551 3.495-3.459 3.495h-6.928a1.282 1.282 0 0 1-1.276-1.29c0-.711.571-1.288 1.276-1.288h6.928c.5 0 .908-.411.908-.917a.913.913 0 0 0-.908-.917H58.177c-.5 0-.907.412-.907.917 0 .506.406.917.907.917h6.764c.705 0 1.276.577 1.276 1.289S65.646 100 64.94 100h-6.764c-1.907 0-3.459-1.568-3.459-3.495 0-1.816 1.377-3.311 3.131-3.478a13.367 13.367 0 0 1 7.056-4.313V67.89h-6.286c-2.867 0-5.318-2.164-5.703-5.035-1.066-7.95 1.896-13.07 3.736-16.904a15.608 15.608 0 0 0 1.146-3.287zM68.543 67.89h-1.087v20.474c.408-.017.76-.014 1.087 0V67.89zm-6.922 25.12h12.758a10.83 10.83 0 0 0-12.758 0z" fill="#5D5D5E"/></symbol><symbol viewBox="0 0 104 100" fill="none" id="icon-adv4"><circle cx="50" cy="50" r="50" fill="#F5EAE4"/><path d="M103.713 60.566l-7.887-15.695c-.71-1.413-2.067-2.29-3.542-2.29H31.716c-1.475 0-2.832.877-3.542 2.29l-7.887 15.695a2.736 2.736 0 0 0 .103 2.628c.445.733 1.2 1.17 2.021 1.17h6.421v31.572c0 2.24 1.67 4.064 3.722 4.064h58.893c2.052 0 3.721-1.823 3.721-4.064V82.383c0-.712-.57-1.29-1.275-1.29-.704 0-1.275.578-1.275 1.29v13.553c0 .805-.536 1.486-1.171 1.486H63.275V49.254l6.65 13.233c.582 1.158 1.7 1.878 2.916 1.878h19.777v12.002c0 .712.57 1.29 1.275 1.29.704 0 1.275-.578 1.275-1.29V64.365h6.421c.821 0 1.577-.438 2.022-1.17a2.74 2.74 0 0 0 .102-2.629zm-81.164 1.22c0-.016.003-.034.012-.052l7.886-15.695c.273-.542.759-.88 1.27-.88h28.205l-8.12 16.16c-.145.289-.391.468-.643.468H22.55zm38.176 35.636H32.554c-.635 0-1.172-.68-1.172-1.486V64.365H51.16c1.221 0 2.336-.724 2.916-1.878l6.65-13.233v48.168zm12.116-35.635c-.252 0-.498-.18-.643-.468l-8.12-16.16h28.206c.51 0 .996.338 1.27.88l7.885 15.695c.01.018.013.036.013.053H72.841zM62 16.008c-2.842-4.61-9.22-5.388-13.06-1.5a8.478 8.478 0 0 0-2.456 6.004c.007 6.546 4.342 12.883 11.893 17.386a1.272 1.272 0 0 0 1.746-.456 1.297 1.297 0 0 0-.45-1.765c-3.196-1.906-10.63-7.199-10.639-15.168-.003-3.55 3.09-6.342 6.623-5.861 3.157.43 4.25 2.939 4.493 3.195 1.126 1.187 2.663 1.192 3.722-.036.283-.33 1.65-3.226 5.247-3.23 3.22 0 5.844 2.65 5.847 5.905.008 7.588-6.668 12.775-10.647 15.191a1.297 1.297 0 0 0-.437 1.77c.363.61 1.146.807 1.75.44 7.67-4.657 11.89-10.838 11.884-17.404C77.507 12.181 66.72 8.648 62 16.01z" fill="#5D5D5E"/></symbol><symbol viewBox="0 0 104 100" fill="none" id="icon-adv5"><circle cx="50" cy="50" r="50" fill="#F5EAE4"/><path d="M37.303 70.509c0 13.822 11.303 25.067 25.196 25.067 13.894 0 25.196-11.245 25.196-25.067 0-13.823-11.302-25.068-25.196-25.068-13.893 0-25.196 11.245-25.196 25.068zm47.428 0c0 12.196-9.973 22.118-22.232 22.118-12.258 0-22.232-9.922-22.232-22.118 0-12.197 9.974-22.119 22.232-22.119 12.259 0 22.232 9.922 22.232 22.119z" fill="#5D5D5E"/><path d="M41.435 92.154a3.389 3.389 0 0 0-.498-3.663A27.908 27.908 0 0 1 34.34 70.51c0-7.83 3.345-15.358 9.177-20.655a3.348 3.348 0 0 0 .878-3.72 3.392 3.392 0 0 0-3.182-2.168H25.388c-2.42 0-4.388 1.959-4.388 4.367v41.403c0 2.408 1.968 4.366 4.389 4.366h12.967a3.362 3.362 0 0 0 3.08-1.948zm-2.685-1.245a.407.407 0 0 1-.397.244H25.388a1.422 1.422 0 0 1-1.424-1.417V48.332c0-.781.639-1.416 1.425-1.416h15.823a.42.42 0 0 1 .42.284.404.404 0 0 1-.114.476C35.073 53.53 31.375 61.851 31.375 70.51a30.83 30.83 0 0 0 7.295 19.878c.18.216.127.42.08.522zm60.86-46.943H83.785a3.39 3.39 0 0 0-3.182 2.168 3.347 3.347 0 0 0 .878 3.72c5.833 5.297 9.178 12.825 9.178 20.655a27.887 27.887 0 0 1-6.6 17.98 3.389 3.389 0 0 0-.498 3.663 3.364 3.364 0 0 0 3.083 1.95h12.967c2.421 0 4.389-1.958 4.389-4.366V48.332c-.002-2.407-1.97-4.366-4.39-4.366zm1.424 45.77c0 .781-.639 1.417-1.424 1.417H86.643a.404.404 0 0 1-.394-.244.47.47 0 0 1 .078-.522 30.831 30.831 0 0 0 7.297-19.878c0-8.656-3.697-16.979-10.144-22.831a.405.405 0 0 1-.113-.476.42.42 0 0 1 .418-.286h15.823c.786 0 1.425.635 1.425 1.417l.001 41.403zM50.642 70.508c0 6.505 5.32 11.797 11.857 11.797 6.538 0 11.857-5.292 11.857-11.797 0-6.504-5.32-11.796-11.857-11.796-6.537 0-11.857 5.292-11.857 11.796zm20.75 0c0 4.88-3.988 8.848-8.893 8.848-4.904 0-8.892-3.968-8.892-8.847 0-4.88 3.988-8.848 8.892-8.848 4.905 0 8.893 3.968 8.893 8.847zM37.303 35.119H25.446v7.373h11.857v-7.373zm-2.964 4.423h-5.928v-1.474h5.928v1.474zm53.356 2.95H98.07c.82 0 1.482-.66 1.482-1.475 0-.815-.662-1.475-1.482-1.475H87.695c-.818 0-1.482.66-1.482 1.475 0 .816.664 1.475 1.482 1.475zm-42.981 1.474c.818 0 1.482-.659 1.482-1.474h32.606c0 .815.664 1.474 1.483 1.474.818 0 1.482-.659 1.482-1.474v-1.475c0-.816-.664-1.475-1.482-1.475h-13.34v-3.817c4.34-1.755 7.411-5.989 7.411-10.928C74.356 18.292 69.036 13 62.5 13c-6.537 0-11.857 5.292-11.857 11.797 0 4.94 3.071 9.173 7.41 10.928v3.817H44.715c-.818 0-1.482.66-1.482 1.475v1.474c0 .816.664 1.475 1.482 1.475zm19.267-4.424h-2.964V36.5c.033.005.065.003.098.006.453.053.916.087 1.384.087.469 0 .93-.034 1.384-.087.033-.004.066-.001.098-.006v3.042zM53.606 24.797c0-4.88 3.989-8.848 8.893-8.848 4.904 0 8.893 3.968 8.893 8.848 0 3.946-2.61 7.294-6.203 8.431l-.127.039-.048.011a9.258 9.258 0 0 1-1.12.247c-.071.011-.142.023-.213.032a8.935 8.935 0 0 1-2.364 0 9.204 9.204 0 0 1-1.334-.279l-.048-.011-.127-.039c-3.593-1.137-6.202-4.485-6.202-8.431zm29.643 69.305c-.818 0-1.482.659-1.482 1.474v1.475H43.232v-1.475c0-.815-.664-1.474-1.482-1.474s-1.482.659-1.482 1.474v2.95c0 .815.664 1.474 1.482 1.474h41.499c.818 0 1.482-.66 1.482-1.475v-2.949c0-.815-.665-1.474-1.482-1.474z" fill="#5D5D5E"/><path d="M68.428 24.797c0-3.253-2.66-5.899-5.929-5.899-3.27 0-5.928 2.646-5.928 5.899s2.659 5.898 5.928 5.898c3.27 0 5.929-2.645 5.929-5.898zm-8.893 0a2.96 2.96 0 0 1 2.964-2.95 2.96 2.96 0 0 1 2.964 2.95 2.96 2.96 0 0 1-2.964 2.949 2.96 2.96 0 0 1-2.964-2.95z" fill="#5D5D5E"/></symbol><symbol viewBox="0 0 16 10" id="icon-next"><path d="M10.774.15a.616.616 0 0 0-.806 0 .467.467 0 0 0 0 .71l4.088 3.634H.564c-.314 0-.564.223-.564.502 0 .28.25.51.564.51h13.492L9.968 9.132a.475.475 0 0 0 0 .717c.226.2.589.2.806 0l5.057-4.495a.457.457 0 0 0 0-.71L10.774.15z"/></symbol><symbol viewBox="0 0 16 10" id="icon-prev"><path d="M5.226.15c.218-.2.58-.2.806 0a.467.467 0 0 1 0 .71L1.943 4.494h13.492c.315 0 .565.223.565.502 0 .28-.25.51-.565.51H1.943l4.09 3.627c.217.2.217.523 0 .717-.226.2-.59.2-.807 0L.169 5.355a.457.457 0 0 1 0-.71L5.226.15z"/></symbol><symbol viewBox="0 0 16 16" id="icon-search"><path d="M15.862 15.184l-3.89-3.888a6.794 6.794 0 0 0 1.675-4.474A6.83 6.83 0 0 0 6.824 0 6.83 6.83 0 0 0 0 6.822c0 3.76 3.062 6.822 6.824 6.822 1.71 0 3.275-.631 4.474-1.674l3.89 3.888a.483.483 0 0 0 .336.142.48.48 0 0 0 .337-.816zM.955 6.822A5.871 5.871 0 0 1 6.82.958a5.871 5.871 0 0 1 5.866 5.864A5.874 5.874 0 0 1 6.82 12.69 5.874 5.874 0 0 1 .955 6.822z"/></symbol><symbol viewBox="0 0 41 41" fill="none" id="in-stock"><circle cx="20.5" cy="20.5" r="20.5" fill="#C6D088"/><path d="M30.475 13.693a2.42 2.42 0 0 0-3.39 0l-8.855 8.755-3.139-3.104a2.42 2.42 0 0 0-3.39 0 2.354 2.354 0 0 0 0 3.352l5.406 5.346c.31.306.717.459 1.123.459.407 0 .814-.153 1.124-.46l11.121-10.996a2.354 2.354 0 0 0 0-3.352zm-.869 2.493L18.485 27.182a.363.363 0 0 1-.509 0l-5.406-5.345a1.147 1.147 0 0 1 0-1.633c.228-.226.527-.338.826-.338.3 0 .599.112.826.338l3.23 3.192a1.1 1.1 0 0 0 .778.32 1.1 1.1 0 0 0 .78-.32l8.944-8.844a1.18 1.18 0 0 1 1.652 0c.456.45.456 1.184 0 1.634z" fill="#000"/></symbol><symbol viewBox="0 0 59 58" fill="none" id="inst"><path d="M.326 0H59v58H.326z"/><rect x=".813" width="58.188" height="58" rx="22" fill="#F5EAE4"/><path d="M41.81 0H17.515C8.037 0 .325 7.623.325 16.992v24.016C.326 50.378 8.038 58 17.516 58H41.81C51.29 58 59 50.377 59 41.008V16.992C59 7.622 51.289 0 41.81 0zm14.898 41.008c0 8.12-6.683 14.726-14.898 14.726H17.515c-8.214 0-14.897-6.606-14.897-14.726V16.992c0-8.12 6.683-14.726 14.897-14.726H41.81c8.215 0 14.898 6.606 14.898 14.726v24.016z" fill="#000"/><path d="M28.918 50.297h-9.34a1.14 1.14 0 0 0-1.146 1.133 1.14 1.14 0 0 0 1.146 1.133h9.34a1.14 1.14 0 0 0 1.146-1.133 1.14 1.14 0 0 0-1.146-1.133zm5.214 0h-.014a1.14 1.14 0 0 0-1.146 1.133 1.14 1.14 0 0 0 1.146 1.133h.014a1.14 1.14 0 0 0 1.146-1.133 1.14 1.14 0 0 0-1.146-1.133zM20.476 17.64a1.156 1.156 0 0 0-1.62-.053l-.051.047a1.124 1.124 0 0 0-.047 1.602c.225.236.53.355.834.355.282 0 .565-.102.786-.309l.045-.041a1.124 1.124 0 0 0 .053-1.601z" fill="#000"/><path d="M29.663 13.367c-2.517 0-5.022.6-7.245 1.733-.562.287-.783.97-.492 1.527.29.556.981.774 1.544.487a13.497 13.497 0 0 1 6.193-1.481c7.456 0 13.522 5.996 13.522 13.367 0 7.37-6.066 13.367-13.522 13.367-7.457 0-13.523-5.996-13.523-13.367 0-2.313.607-4.592 1.755-6.59a1.126 1.126 0 0 0-.43-1.545 1.153 1.153 0 0 0-1.563.426A15.498 15.498 0 0 0 13.848 29c0 8.62 7.095 15.633 15.815 15.633 8.72 0 15.814-7.013 15.814-15.633s-7.094-15.633-15.814-15.633z" fill="#000"/><path d="M29.663 18.805c-5.687 0-10.314 4.573-10.314 10.195s4.627 10.195 10.314 10.195S39.977 34.622 39.977 29 35.35 18.805 29.663 18.805zm0 18.125c-4.423 0-8.022-3.558-8.022-7.93s3.599-7.93 8.022-7.93 8.022 3.558 8.022 7.93-3.599 7.93-8.022 7.93zM44.704 9.827c-2.401 0-4.355 1.931-4.355 4.305 0 2.373 1.954 4.304 4.355 4.304 2.401 0 4.355-1.93 4.355-4.304 0-2.374-1.954-4.305-4.355-4.305zm0 6.344c-1.138 0-2.063-.915-2.063-2.04 0-1.123.925-2.038 2.063-2.038 1.137 0 2.063.915 2.063 2.039s-.926 2.039-2.063 2.039z" fill="#000"/></symbol><symbol viewBox="0 0 211 52" id="logotip"><path d="M67.868.31h-4.817v22.32h4.817V.31zm13.906 22.63L92.355.31h-.388l-7.924 17.023L75.777.311h-5.221L81.65 22.94h.124zm10.457-11.462c0 6.679 5.392 11.462 11.638 11.462 6.246 0 11.637-4.784 11.637-11.462C115.506 4.784 110.115 0 103.869 0S92.231 4.784 92.231 11.478zm5.392 0c0-7.47 1.91-11.167 6.246-11.167 4.303 0 6.246 3.696 6.246 11.167 0 7.455-1.943 11.152-6.246 11.152-4.335 0-6.246-3.697-6.246-11.152zM123.415.668h3.729c3.309 0 5.376 1.848 5.376 5.669 0 3.759-2.16 5.545-5.5 5.545h-3.605V.668zm0 11.57h2.89c2.874 0 3.962 1.12 4.847 3.977l1.026 3.153c.388 1.18.699 2.206 1.398 3.262h5.299c-.995-1.15-1.368-2.175-1.88-3.697l-1.026-2.966c-.854-2.579-2.936-3.697-6.153-3.821v-.062c3.543-.078 7.691-1.755 7.691-5.902 0-4.085-3.806-5.871-8.716-5.871h-10.193V22.63h4.817V12.239zm28.278.451L144.359.311h-5.422l8.002 13.046v9.273h4.847v-9.444L159.757.311h-.357l-7.707 12.378zM83.157 52h.124l7.971-22.63h-.388l-6.79 19.29-6.977-19.29h-2.206l2.035 5.607-4.707 13.59-7.086-19.197h-2.268L71.255 52h.124l5.75-16.51L83.156 52zm11.498-.31h14.854v-.358H96.892V40.398h9.183v-.342h-9.183V29.728h12.244v-.358H94.655v22.32zm25.73 0c7.784 0 12.632-4.63 12.632-11.354 0-6.663-4.817-10.966-12.632-10.966h-6.495v22.32h6.495zm10.239-11.354c0 6.756-3.294 10.996-10.425 10.996h-4.087V29.728h4.024c7.194 0 10.488 3.852 10.488 10.608zm12.943 11.353c7.784 0 12.632-4.628 12.632-11.353 0-6.663-4.817-10.966-12.632-10.966h-6.51v22.32h6.51zm10.239-11.353c0 6.756-3.294 10.996-10.425 10.996h-4.087V29.728h4.024c7.194 0 10.488 3.852 10.488 10.608zm8.67-10.966h-2.237v22.32h2.237V29.37zm23.617 19.26l-17.557-19.57h-.14v22.63h.357V32.336L186.326 52h.125V29.37h-.358v19.26zM211 52V41.672h-2.206v2.904c0 4.426-3.279 7.113-7.272 7.113-5.221 0-8.608-3.96-8.608-11.12 0-7.207 3.667-11.168 8.965-11.168 3.698 0 6.79 1.787 8.22 5.421l.295-.124c-1.538-3.914-4.848-5.638-8.67-5.638-6.153 0-11.265 4.752-11.265 11.509 0 6.678 4.879 11.431 11.032 11.431 3.807 0 6.448-2.19 7.458-4.675L210.876 52H211z"/><path fill-rule="evenodd" clip-rule="evenodd" d="M32.35 33.114c.792.62 2.376 2.64 2.36 4.333-2.36.14-3.76-.28-5.313-1.398-.917-.652-2.253-2.594-2.144-4.504 2.33-.093 3.651.42 5.096 1.569zm-20.06 0c-.792.62-2.361 2.64-2.361 4.333 2.377.14 3.775-.28 5.313-1.398.917-.652 2.269-2.594 2.145-4.504-2.331-.093-3.652.42-5.097 1.569zm10.038.217l-.032-.016c-3.2 1.507-4.366 7.005-2.206 11.152.497.963 1.445 2.345 2.238 2.78.792-.435 1.724-1.817 2.221-2.78 2.16-4.147 1.01-9.645-2.206-11.152l-.015.016zm0 15.842c-.047.016-.094.031-.125.047-.59-.668-1.056-.87-1.6-1.507-2.766-3.292-3.993-7.486-2.377-11.68.637-1.646 1.569-2.609 2.61-3.587l-1.896-.622c-.357.668-.481 2.206-1.118 3.355-1.74 3.138-5.765 4.365-9.478 3.433-.11-1.569.699-3.743 1.585-5.002.434-.62.466-.605.978-1.133.544-.528.544-.575 1.212-1.04 1.523-1.057 3.325-1.43 5.314-1.352l-.155-1.15c-4.382 1.041-8.484.762-11.731-1.506C3.434 25.985.622 22.428 0 18.685c8.701-1.988 16.563 1.428 18.334 8.464l2.44-.916-.668-.575c-4.01-3.06-5.408-7.315-4.367-12.58.529-2.656 1.337-4.598 2.58-6.726.481-.823 2.92-4.612 4.009-5.172 1.072.56 3.527 4.35 4.008 5.172 1.228 2.128 2.051 4.07 2.58 6.726 1.04 5.265-.373 9.52-4.382 12.58l-.653.575 2.44.916c1.755-7.036 9.633-10.452 18.318-8.464-.621 3.743-3.433 7.3-5.531 8.744-3.247 2.268-7.365 2.547-11.73 1.507l-.156 1.149c1.973-.078 3.775.295 5.298 1.351.668.466.684.513 1.212 1.04.528.529.56.513.979 1.135.886 1.258 1.694 3.432 1.585 5-3.714.933-7.738-.294-9.478-3.432-.637-1.15-.746-2.687-1.119-3.355l-1.896.622c1.057.978 1.974 1.941 2.61 3.587 1.632 4.194.39 8.388-2.376 11.68-.529.637-1.01.839-1.585 1.507-.047-.016-.078-.031-.125-.047zm0-45.88c-.98.807-2.58 3.386-3.341 4.783-2.082 3.821-3.092 9.118-.917 13.156.606 1.165 1.041 1.537 1.865 2.36 1.103 1.103 1.74 1.663 2.393 1.663.637 0 1.274-.56 2.392-1.662.824-.824 1.243-1.196 1.865-2.361 2.16-4.038 1.15-9.335-.933-13.156-.76-1.397-2.361-3.976-3.325-4.783zm0 23.887l-.063-.015-3.465 1.398c-.015-.031-.077.046-.108.062l.186 1.584c.28.155 3.061 1.165 3.45 1.29.372-.125 3.154-1.135 3.433-1.29l.187-1.584c-.031-.016-.078-.093-.109-.062l-3.465-1.398-.046.015zm-5.423.404c-.404-2.687-2.766-5.343-5.159-6.492-2.952-1.429-6.339-1.755-9.913-1.29.482 2.424 2.937 5.515 5.112 6.835 3.465 2.081 5.967 1.46 9.96.947zm10.83 0c.42-2.687 2.78-5.343 5.173-6.492 2.953-1.429 6.34-1.755 9.898-1.29-.482 2.424-2.921 5.515-5.112 6.835-3.45 2.081-5.95 1.46-9.96.947zM52.563.342h2.083v51.642h-2.083V.342z"/></symbol><symbol viewBox="0 0 12 12" id="modal-close"><path d="M6.873 6.008l4.932-4.91a.595.595 0 0 0 0-.847.608.608 0 0 0-.855 0L6.023 5.157 1.05.177a.603.603 0 0 0-.855 0 .609.609 0 0 0 0 .859l4.97 4.975-4.988 4.966a.596.596 0 0 0 0 .847.608.608 0 0 0 .855 0l4.983-4.961 4.953 4.96a.603.603 0 0 0 .855 0 .609.609 0 0 0 0-.859l-4.95-4.956z"/></symbol><symbol viewBox="0 0 7 4" id="navbar-dropdown"><path d="M3.5 4a.488.488 0 0 1-.347-.144L.143.84a.492.492 0 0 1 0-.695.49.49 0 0 1 .694 0L3.5 2.814 6.163.144a.49.49 0 0 1 .693 0 .492.492 0 0 1 0 .695l-3.01 3.017A.488.488 0 0 1 3.5 4z"/></symbol><symbol viewBox="0 0 11 17" id="pagin-next"><path fill-rule="evenodd" clip-rule="evenodd" d="M.9.98A1.5 1.5 0 0 0 .98 3.1l5.816 5.4-5.817 5.4a1.5 1.5 0 0 0 2.042 2.2l7-6.5a1.5 1.5 0 0 0 0-2.2l-7-6.5A1.5 1.5 0 0 0 .9.98z"/></symbol><symbol viewBox="0 0 11 17" id="pagin-prev"><path fill-rule="evenodd" clip-rule="evenodd" d="M10.1.98a1.5 1.5 0 0 1-.08 2.12L4.205 8.5l5.817 5.4a1.5 1.5 0 0 1-2.042 2.2l-7-6.5a1.5 1.5 0 0 1 0-2.2l7-6.5a1.5 1.5 0 0 1 2.12.08z"/></symbol><symbol viewBox="0 0 41 41" fill="none" id="under-order"><circle cx="20.5" cy="20.5" r="20.5" fill="#F5EAE4"/><path d="M29.64 31.267h-1.08V29.8h-1.8v-3.748c0-.99-.483-1.91-1.292-2.459L21.649 21l3.819-2.593a2.965 2.965 0 0 0 1.292-2.459V12.2h1.8v-1.467h1.08c.199 0 .36-.164.36-.366a.363.363 0 0 0-.36-.367H12.36a.363.363 0 0 0-.36.367c0 .202.161.366.36.366h1.08V12.2h1.8v3.748c0 .99.483 1.91 1.292 2.459L20.351 21l-3.819 2.593a2.965 2.965 0 0 0-1.292 2.459V29.8h-1.8v1.467h-1.08a.363.363 0 0 0-.36.366c0 .203.161.367.36.367h17.28c.199 0 .36-.164.36-.367a.363.363 0 0 0-.36-.366zm-15.48-19.8v-.734h13.68v.734H14.16zm2.771 6.33a2.23 2.23 0 0 1-.971-1.849V12.2h10.08v3.748a2.23 2.23 0 0 1-.971 1.849L21 20.559l-4.069-2.762zm-.971 8.255c0-.744.363-1.436.971-1.849L21 21.441l4.069 2.762a2.23 2.23 0 0 1 .971 1.849V29.8H15.96v-3.748zm-1.8 4.481h13.68v.734H14.16v-.734z" fill="#000"/><path d="M17.73 16.576a.758.758 0 0 1-.33-.628v-.815a.363.363 0 0 0-.36-.366.363.363 0 0 0-.36.366v.815c0 .499.243.962.65 1.239L19 18.32a.355.355 0 0 0 .5-.101.371.371 0 0 0-.1-.509l-1.67-1.134zm6.94 8.553L23 23.995a.356.356 0 0 0-.5.102.371.371 0 0 0 .1.508l1.67 1.134c.207.14.33.375.33.628v.815c0 .203.161.367.36.367.199 0 .36-.164.36-.367v-.814c0-.5-.243-.963-.65-1.24z" fill="#000"/></symbol><symbol viewBox="0 0 258 17" id="venzel"><path d="M134.462 3.194a21.213 21.213 0 0 1 3.677-1.3 34.309 34.309 0 0 1 5.252-.865c3.572-.217 6.933.487 10.19 2.003 3.099 1.461 5.882 3.41 8.456 5.792 1.628 1.516 3.204 3.14 4.465 5.035.052.108.157.162.315.162h85.719c.578 0 .631-.108.525-.704 0-.108-.052-.162-.157-.216h-85.142c-.367 0-.578-.108-.84-.433-2.889-3.736-6.356-6.821-10.4-9.203-2.626-1.57-5.41-2.653-8.456-3.14a25.385 25.385 0 0 0-5.358-.217c-2.363.163-4.674.65-6.88 1.462a23.942 23.942 0 0 0-6.566 3.681c-.21.163-.368.163-.578 0-3.256-2.652-6.985-4.222-11.03-4.872C116.183.109 114.66 0 113.137 0c-3.151 0-6.198.758-9.087 2.057-3.256 1.462-6.145 3.519-8.824 6.01a40.017 40.017 0 0 0-4.307 4.71c-.157.216-.315.27-.577.27H5.463c-.578.054-.63.162-.526.812 0 .108.053.162.158.162h85.877c.315 0 .473-.108.683-.379 1.103-1.624 2.468-3.031 3.834-4.33 1.576-1.516 3.309-2.924 5.147-4.115 2.837-1.84 5.831-3.248 9.14-3.844 1.575-.324 3.204-.379 4.832-.27a28.61 28.61 0 0 1 7.353 1.461 9.692 9.692 0 0 1 1.576.65 36.62 36.62 0 0 0-2.416-.27c-1.628-.109-3.204.108-4.727.54-2.154.65-4.045 1.787-5.831 3.086-1.838 1.354-3.571 2.816-5.462 4.169-1.996 1.462-4.097 2.76-6.513 3.519-1.208.379-2.469.595-3.73.704-1.207.108-2.468.108-3.676.108H.578c-.63 0-.525-.054-.525.541v1.083c-.106.27-.053.325.157.325h90.972c1.523 0 3.046-.054 4.517-.163 2.416-.216 4.78-.595 7.038-1.624 1.734-.758 3.257-1.894 4.622-3.248 1.156-1.19 2.206-2.436 3.362-3.627 1.943-2.057 4.149-3.627 6.933-4.169a15.095 15.095 0 0 1 4.412-.162c1.471.162 2.836.433 4.202.975a9.06 9.06 0 0 1 1.733.974c.263.162.263.162 0 .379-.945.866-1.785 1.732-2.416 2.87-.105.216-.21.378-.21.595 0 .108-.052.216.053.27.105.054.21 0 .262-.054.316-.216.526-.487.736-.758a30.24 30.24 0 0 1 2.206-2.328c.157-.162.315-.216.525 0a21.05 21.05 0 0 1 2.364 2.49c.157.163.262.325.472.434.053.054.158.108.263.054.105-.054.105-.163.105-.27a2.11 2.11 0 0 0-.578-1.246 14.24 14.24 0 0 0-1.943-2.057c-.158-.162-.158-.217 0-.379 1.365-.974 2.941-1.516 4.569-1.787 1.156-.216 2.364-.27 3.519-.27 2.942.054 5.568 1.028 7.827 3.031 1.26 1.083 2.311 2.328 3.414 3.573 1.575 1.787 3.256 3.357 5.357 4.385 1.733.867 3.519 1.354 5.41 1.679 1.576.216 3.204.324 4.78.379 1.628.054 3.256.054 4.885.054h87.873c.577 0 .525.054.525-.542v-1.082c0-.217-.053-.271-.263-.271h-91.234c-1.366 0-2.784 0-4.15-.162-1.733-.163-3.361-.704-4.937-1.408-2.259-1.029-4.254-2.544-6.198-4.06-1.733-1.354-3.466-2.761-5.305-3.952-1.891-1.191-3.834-2.057-6.04-2.382-1.261-.217-2.521-.217-3.782-.108-.578.054-1.103.108-1.628.162z"/><path d="M157.467 11.044c.998 0 1.944-.271 2.837-.704.157-.054.21-.162.157-.325-.735-1.786-1.838-3.194-3.571-4.006-.526-.27-.526-.27-.578.325 0 .541-.263.812-.788.758-.735-.054-1.313-.38-1.943-.758-.841-.487-1.576-1.137-2.364-1.678-1.996-1.462-4.202-2.436-6.671-2.707-.525-.054-1.05-.054-1.575-.108h-.105c-.21 0-.473.216-.42.379.052.27.262.216.42.216.893 0 1.786.162 2.626.433 1.261.433 2.364 1.245 3.361 2.166.893.812 1.734 1.732 2.627 2.652.84.866 1.68 1.733 2.731 2.382.998.596 2.101.975 3.256.975zm-57.461-.054c2.048 0 3.362-.596 4.57-1.57.893-.704 1.68-1.57 2.468-2.382.946-.975 1.891-2.003 2.994-2.815 1.156-.866 2.364-1.462 3.782-1.678a8.348 8.348 0 0 1 1.155-.109h.158c.158 0 .368 0 .368-.216 0-.217-.21-.38-.421-.38-.367 0-.787 0-1.155.055-1.681.162-3.309.541-4.832 1.3-1.208.595-2.311 1.407-3.414 2.219-.788.595-1.576 1.137-2.469 1.461-.315.109-.578.217-.945.217-.473 0-.736-.27-.736-.758 0-.595 0-.595-.525-.379-1.418.65-2.416 1.732-3.151 3.086-.158.27-.263.595-.42.866-.106.162-.053.27.157.379.84.487 1.89.704 2.416.704zm21.22-5.36c1.26-.054 2.468.27 3.624.866.105.055.21.109.368.109.157.054.262 0 .315-.163.052-.162 0-.27-.105-.325-.21-.162-.42-.27-.683-.433-1.418-.703-2.889-.92-4.465-.812-2.258.217-4.307.866-6.303 1.95-1.575.865-2.941 2.002-3.886 3.626-.946 1.57-1.208 3.248-1.051 5.035 0 .162.053.325.053.487 0 .38.21.542.525.65 1.418.379 2.784.325 4.097-.27.368-.163.368-.163.105-.488-.893-.975-1.366-2.165-1.261-3.519.105-1.19.578-2.22 1.313-3.14 1.629-2.057 3.782-3.194 6.303-3.573.105 0 .21-.054.315-.054.211.054.473.054.736.054zm25.369 11.26c.683.055 1.366-.108 1.996-.324.157-.055.21-.109.263-.325.472-2.924-.263-5.468-2.312-7.525-1.208-1.191-2.678-2.057-4.254-2.707-1.838-.758-3.729-1.191-5.673-1.137-1.365.054-2.678.38-3.886 1.137-.053.054-.105.054-.158.108-.105.054-.158.163-.105.271 0 .108.105.162.21.217.21.054.368-.055.578-.163.683-.379 1.418-.65 2.153-.758 1.629-.27 3.257-.054 4.78.596 1.786.758 3.257 1.894 4.307 3.519.525.866.893 1.786.893 2.869 0 1.245-.42 2.274-1.156 3.14-.052.054-.105.162-.157.216-.158.163-.105.217.052.325.631.325 1.313.487 2.049.541h.42zm-19.854-3.194c.052.271.105.488.21.758.052.217.158.433.368.596.052.054.105.162.21.108.105-.054.052-.162.052-.216.053-.217.053-.488.158-.704.105.054.105.162.157.27.158.434.316.867.631 1.246.367.433.577.433.945 0 .263-.38.42-.758.578-1.191.052-.109.052-.163.105-.325.157.216.157.487.21.704 0 .108 0 .27.105.27.105.054.21-.108.263-.162.262-.325.367-.704.42-1.083v-.162h.052c.105.054.158.216.316.162.105-.054.157-.216.157-.325.105-.92.053-1.786-.473-2.544-.525-.758-1.26-.92-2.048-.433-.158.108-.263.108-.42 0-.893-.542-1.786-.27-2.259.812-.315.704-.367 1.461-.262 2.22.105.216.21.216.525 0z"/><path d="M139.662 10.286a6.39 6.39 0 0 1-.315 2.003c-.053.216-.053.433.105.595.42.65 1.05.92 1.733 1.029.893.108.84.216.998-.812.263-1.516-.21-2.815-1.208-3.952-1.051-1.191-2.364-1.949-3.939-2.328-.158-.054-.316-.054-.526-.054-.157 0-.262.108-.262.325 0 .162.105.27.262.27.368.055.736.055 1.103.109 1.419.379 2.049 1.245 2.049 2.815zm-24.056 2.057c0 .433.105.92.262 1.353.053.109.053.217.21.217.893 0 1.734-.217 2.311-.975a.959.959 0 0 0 .158-.758c-.21-.812-.368-1.624-.263-2.49.158-1.245.841-2.003 2.049-2.273.315-.055.63-.109.945-.109.158 0 .368-.054.368-.27 0-.217-.158-.325-.368-.325-.525 0-.998.162-1.523.379-1.471.595-2.731 1.57-3.519 2.977-.42.758-.578 1.462-.63 2.274zm13.393-2.599c.421 0 .736-.379.736-.758a.763.763 0 0 0-.736-.757c-.42 0-.735.379-.735.812-.053.379.315.703.735.703z"/></symbol><symbol viewBox="0 0 44 44" id="view"><path fill-rule="evenodd" clip-rule="evenodd" d="M43 22c0 11.598-9.402 21-21 21S1 33.598 1 22 10.402 1 22 1s21 9.402 21 21zm1 0c0 12.15-9.85 22-22 22S0 34.15 0 22 9.85 0 22 0s22 9.85 22 22zm-4.968 0c0 9.407-7.625 17.032-17.032 17.032S4.968 31.407 4.968 22 12.593 4.968 22 4.968 39.032 12.593 39.032 22zm-11.443.798h-4.79v4.79a.798.798 0 1 1-1.597 0v-4.79h-4.79a.798.798 0 1 1 0-1.597h4.79v-4.79a.798.798 0 0 1 1.596 0v4.79h4.79a.799.799 0 0 1 0 1.597z"/></symbol><symbol viewBox="0 0 59 58" fill="none" id="vk"><path d="M0 0h58.953v58H0z"/><rect width="58.953" height="58" rx="22" fill="#F5EAE4"/><path d="M41.484 0H17.19C7.71 0 0 7.623 0 16.992v24.016C0 50.378 7.711 58 17.19 58h24.294c9.479 0 17.19-7.623 17.19-16.992V16.992C58.674 7.622 50.963 0 41.484 0zm14.898 41.008c0 8.12-6.683 14.726-14.898 14.726H17.19c-8.215 0-14.898-6.606-14.898-14.726V16.992c0-8.12 6.683-14.726 14.898-14.726h24.294c8.215 0 14.898 6.606 14.898 14.726v24.016z" fill="#000"/><path d="M47.465 37.824l-.514-.831a21.962 21.962 0 0 0-3.615-4.424l-1.72-1.62a.441.441 0 0 1-.057-.58l2.347-3.308c.339-.478.651-.98.929-1.494l2.006-3.712a2.033 2.033 0 0 0-.05-2.038 2.08 2.08 0 0 0-1.793-1.006l-4.342-.005h-.003c-.91 0-1.733.532-2.099 1.356l-.46 1.036a25.604 25.604 0 0 1-4.762 7.168v-7.565c0-1.1-.906-1.996-2.018-1.996h-6.15c-1.01 0-1.832.812-1.832 1.81 0 .382.12.747.344 1.057l.43.593c.422.58.645 1.266.645 1.981v5.529c-.758-.871-1.681-2.054-2.463-3.414-1.197-2.083-2.055-4.511-2.46-5.774a2.571 2.571 0 0 0-2.463-1.782h-4.397c-.621 0-1.192.28-1.567.77a1.91 1.91 0 0 0-.325 1.7l.82 2.879a26.339 26.339 0 0 0 2.055 5.107c.26.49.872.68 1.368.423a.997.997 0 0 0 .427-1.353 24.37 24.37 0 0 1-1.898-4.72l-.798-2.802h4.316c.243 0 .456.154.53.384.429 1.338 1.341 3.916 2.63 6.158 1.057 1.84 2.34 3.372 3.23 4.334a1.74 1.74 0 0 0 1.912.442 1.71 1.71 0 0 0 1.11-1.605v-6.276a5.331 5.331 0 0 0-1.025-3.15l-.208-.287h5.76v8.038c0 .588.299 1.128.799 1.446.5.318 1.121.362 1.662.118l.418-.189c.193-.087.364-.208.509-.36a27.607 27.607 0 0 0 5.257-7.859l.46-1.036a.265.265 0 0 1 .243-.157l4.343.005c.014 0 .037 0 .056.031.019.032.008.052.001.064l-2.006 3.712c-.239.443-.508.876-.8 1.287L39.9 29.217a2.417 2.417 0 0 0 .32 3.184l1.718 1.62a19.944 19.944 0 0 1 3.285 4.019l.514.83c.012.02.05.081.003.164s-.119.083-.143.083H41.85c-.482 0-.95-.196-1.286-.538l-3.749-3.811a6.453 6.453 0 0 0-3.242-1.784 1.874 1.874 0 0 0-1.57.365 1.83 1.83 0 0 0-.697 1.438v3.745a.589.589 0 0 1-.591.585c-2.905 0-5.775-.961-8.083-2.707a24.75 24.75 0 0 1-2.635-2.304 1.022 1.022 0 0 0-1.433-.014.995.995 0 0 0-.014 1.417 26.738 26.738 0 0 0 2.85 2.493 15.527 15.527 0 0 0 9.315 3.12c1.443 0 2.618-1.162 2.618-2.59v-3.543c.772.204 1.47.608 2.029 1.176l3.748 3.812a3.864 3.864 0 0 0 2.74 1.144h3.748c.792 0 1.524-.424 1.911-1.107a2.148 2.148 0 0 0-.043-2.19z" fill="#000"/><path d="M16.05 31.442l-.012-.018a1.155 1.155 0 0 0-1.6-.26 1.125 1.125 0 0 0-.263 1.58l.008.011.936-.653-.931.66a1.149 1.149 0 0 0 1.599.26 1.125 1.125 0 0 0 .263-1.58zm12.01 18.855h-9.339a1.14 1.14 0 0 0-1.146 1.133 1.14 1.14 0 0 0 1.146 1.133h9.34a1.14 1.14 0 0 0 1.146-1.133 1.14 1.14 0 0 0-1.146-1.133zm5.215 0h-.013a1.14 1.14 0 0 0-1.146 1.133 1.14 1.14 0 0 0 1.146 1.133h.013a1.14 1.14 0 0 0 1.146-1.133 1.14 1.14 0 0 0-1.146-1.133z" fill="#000"/></symbol></svg>