<svg version="1" xmlns="http://www.w3.org/2000/svg" width="346.667" height="346.667" viewBox="0 0 260.000000 260.000000"><path d="M124.5 5.2c-5.7 6.6-16.2 22.3-20.2 30.3-7.4 14.8-11.5 31.1-11.5 46.4 0 18.8 5.4 31.5 19.4 45.3l8.8 8.7-5.5 2c-3.1 1.2-5.9 2.1-6.3 2.1-.5 0-1.8-2.7-3-6-5-13.9-16.8-26.4-31.7-33.5-12.1-5.8-19.6-7.6-34.6-8.2-12.1-.5-29.3 1-30.4 2.6-.6 1.1 1.9 9.9 4.8 16.3 5.5 12.4 16.5 25.5 26.9 32.2 14.7 9.4 36.1 12 60.1 7.3.7-.1 1.3 1 1.5 2.4.3 2.5.1 2.6-8.1 3.6-11.2 1.5-18.6 5.2-26.3 12.8-6.4 6.3-10.6 13.7-12.9 22.6-2.4 9-2.1 10.5 2.2 11.3 11.3 1.8 25-.2 33.2-5.1 10.2-6 15.6-13.4 18.7-25.6 1.6-6.3 1.9-6.8 4-6.3 3.9 1 7.4 2.5 7.4 3.2 0 .4-2 2.8-4.4 5.4-13.8 14.7-16.6 39.6-6.8 59.8 4.1 8.5 10.4 17.1 15.7 21.5l4.5 3.8 4.9-4.1c8.4-7.1 17.5-22.9 20-34.8 3.4-16.5-1.1-35.1-11.3-46-2.5-2.7-4.6-5.2-4.6-5.6 0-.7 3.5-2.2 7.4-3.2 2.1-.5 2.4 0 4.1 6.3 2.3 8.8 4.7 13.5 9.5 18.7 7.2 7.8 19.4 12.6 32.1 12.6 8.4 0 12.9-.9 13.6-2.7.3-.8-.2-4.4-1.1-8.1-5.3-21.8-19.4-34.2-41.9-36.7-5.6-.6-5.8-.8-5.5-3.3.2-1.5.8-2.6 1.5-2.5 16.5 3.2 34.9 2.9 46.5-.9 14.7-4.8 26-14.4 35.9-30.3 5-8 10.7-23.2 9.2-24.6-2.7-2.6-30.8-3.8-41.9-1.8-26.5 4.7-46.9 20-54.5 41.1-1.2 3.2-2.5 5.8-2.9 5.8-.5 0-3.3-1-6.4-2.1l-5.6-2.2 8.8-8.6c15.8-15.5 21.3-31 19-53.9-1.7-18.1-9-36.9-20.9-54.3C139.5 9.6 131.4 0 130 0c-.5 0-2.9 2.4-5.5 5.2zm12.2 14.3c15.2 20.1 23.7 44.1 22.7 64.1-.7 15.9-5.4 26.6-16.4 37.6-11.1 11.1-14 11.4-24.1 2-7.7-7.1-12.1-13.8-15.6-23.9-2.3-6.7-2.6-9.4-2.6-18.8 0-12.1 1.6-20.1 6.3-32.2 5-13 20.5-36.9 23.4-36 .6.2 3.4 3.4 6.3 7.2zM60 103c4.1 1.2 10.2 3.6 13.5 5.3 7.5 3.9 19.4 15.5 22.7 22.2 2.6 5 5.1 12.5 4.2 12.5-.3 0-6.3.7-13.4 1.6-10.4 1.2-14.4 1.3-20.2.4-18.7-2.8-35.2-16-44.4-35.4-3.1-6.4-3.5-8-2.3-8.7.8-.6 7.9-.8 16.9-.6 12 .4 17.2 1 23 2.7zm178.8-2.4c2.7.8 2.5 2-2 11.2-4.4 8.7-13 18.7-21.1 24.2-14.2 9.7-25.5 11.3-52.4 7.4l-4.1-.6 1.3-4.4c3-9.9 11.7-20.9 21.9-27.5 11.4-7.5 24.1-10.7 42.1-10.8 6.6 0 13 .2 14.3.5zm-98.3 44.2l9 3.7-.3 4c-.2 2.2-.7 4.3-1 4.6-.4.4-4.6 2.1-9.4 3.9l-8.6 3.2-8.9-3.2c-4.8-1.8-9.1-3.5-9.5-3.9-.3-.3-.8-2.4-1-4.6l-.3-4 8.5-3.7c4.7-2 9.4-3.7 10.5-3.7 1.1 0 6 1.6 11 3.7zM103 167.7c0 5.3-4.9 15.1-9.6 19.4-6.5 5.8-12.6 8.2-22.2 8.7l-8.5.5.7-3.9c1.6-8.2 10.4-19.7 18.5-23.8 4.2-2.2 12.8-4.5 17.4-4.5 3.6-.1 3.7 0 3.7 3.6zm66.1-2.3c7.5 1.7 13.7 5.5 18.9 11.3 4.7 5.3 9 13.5 9 17.2 0 2.3-.1 2.3-8.2 1.9-14-.8-23.8-7.2-29.4-19.2-1.3-2.8-2.4-6.8-2.4-8.9 0-3.5.2-3.7 3.3-3.7 1.7 0 5.7.6 8.8 1.4zm-35 11c4.4 3 9.2 10 11.6 17 2.7 7.8 2.4 25.1-.6 33.6-2.5 7.1-10.2 19.4-13.1 21-3.4 1.8-6.5-.9-12.8-11.6-8.9-15.3-9.4-36.7-1.2-51.2 2.6-4.4 9.8-11.2 11.9-11.2.4 0 2.3 1.1 4.2 2.4z"/></svg>