<svg width="24" height="25" viewBox="0 0 24 25" xmlns="http://www.w3.org/2000/svg">
<path d="M20.4121 4.09192C18.1651 1.84621 15.1776 0.609375 11.9999 0.609375C8.82227 0.609375 5.83478 1.84621 3.58778 4.09192C1.34088 6.33773 0.103394 9.32362 0.103394 12.4996C0.103394 15.6756 1.34088 18.6615 3.58778 20.9073C5.83478 23.153 8.82227 24.3899 11.9999 24.3899C13.6057 24.3899 15.1637 24.0754 16.6309 23.4552L16.0575 22.1004C14.7728 22.6435 13.4076 22.9189 11.9999 22.9189C6.25168 22.9189 1.57513 18.2448 1.57513 12.4996C1.57513 6.7544 6.25168 2.08033 11.9999 2.08033C17.7482 2.08033 22.4248 6.7544 22.4248 12.4996C22.4248 15.0161 20.8778 16.1623 19.4404 16.1623C18.003 16.1623 16.456 15.0161 16.456 12.4996C16.456 10.0438 14.4571 8.0459 11.9999 8.0459C9.54283 8.0459 7.54387 10.0439 7.54387 12.4996C7.54387 14.9554 9.54283 16.9533 11.9999 16.9533C13.4548 16.9533 14.7489 16.2529 15.5626 15.1718C15.771 15.5923 16.0333 15.9727 16.3495 16.305C17.1645 17.1615 18.2622 17.6332 19.4404 17.6332C20.6186 17.6332 21.7163 17.1615 22.5313 16.305C23.4244 15.3665 23.8965 14.0506 23.8965 12.4996C23.8965 9.32362 22.659 6.33773 20.4121 4.09192ZM11.9999 15.4824C10.3544 15.4824 9.0156 14.1443 9.0156 12.4996C9.0156 10.8549 10.3544 9.51686 11.9999 9.51686C13.6455 9.51686 14.9843 10.8549 14.9843 12.4996C14.9843 14.1443 13.6455 15.4824 11.9999 15.4824Z"/>
</svg>
