<svg width="14" height="15" viewBox="0 0 14 15" xmlns="http://www.w3.org/2000/svg">
<path d="M9.91969 14.9938C9.98291 14.9969 10.0433 15 10.1065 15C10.7818 15 11.345 14.7386 11.7875 14.225C11.7904 14.2219 11.7961 14.2158 11.799 14.2127C11.9571 14.0097 12.1352 13.8252 12.3249 13.6315C12.4542 13.4992 12.5864 13.3639 12.7099 13.2225C13.299 12.5644 13.2962 11.731 12.7042 11.0975L11.0663 9.34458C10.7846 9.0309 10.4484 8.86484 10.0921 8.86484C9.73866 8.86484 9.39957 9.02783 9.10934 9.33842L8.14095 10.3748C8.05474 10.3225 7.96566 10.2764 7.87945 10.2302C7.77025 10.1718 7.66968 10.1165 7.5806 10.058C6.69266 9.45529 5.88806 8.66802 5.11794 7.65627C4.73 7.13347 4.47425 6.69679 4.29322 6.2478C4.54609 6.00178 4.78173 5.74654 5.00874 5.49744C5.09207 5.40826 5.17541 5.316 5.26162 5.22374C5.87656 4.56564 5.87656 3.7507 5.26162 3.09567L4.44839 2.22538C4.35356 2.12389 4.26161 2.02241 4.16965 1.924C3.98862 1.72719 3.80184 1.52114 3.61505 1.33663C3.33344 1.03526 3.00011 0.878418 2.64666 0.878418C2.29608 0.878418 1.957 1.03526 1.66389 1.33663L0.643769 2.42527C0.270203 2.82505 0.0575578 3.31094 0.0115805 3.87371C-0.040144 4.57487 0.0805464 5.31908 0.390893 6.21705C0.870782 7.60399 1.59205 8.89251 2.66102 10.2702C3.96276 11.9309 5.52599 13.244 7.31335 14.1696C7.99439 14.5171 8.90532 14.9231 9.91969 14.9938ZM3.20413 9.78741C2.18688 8.47736 1.50584 7.25956 1.05469 5.95565C0.775953 5.15301 0.672504 4.52874 0.715608 3.93521C0.747218 3.55081 0.88515 3.23098 1.14377 2.95729L2.15815 1.87172C2.31332 1.71181 2.48286 1.62878 2.64953 1.62878C2.81332 1.62878 2.97424 1.71181 3.12942 1.8748C3.31045 2.05624 3.48574 2.2469 3.66965 2.44679C3.76161 2.54828 3.85643 2.65284 3.95414 2.75432L4.76736 3.62461C5.1007 3.98134 5.1007 4.33192 4.76736 4.68865C4.68115 4.78091 4.59494 4.87317 4.51161 4.96542C4.25874 5.23912 4.0231 5.49744 3.76161 5.74654C3.75586 5.75269 3.75298 5.75576 3.74724 5.76191C3.51448 6.01101 3.54896 6.25088 3.60643 6.42924C3.60931 6.43847 3.61218 6.44462 3.61505 6.45384C3.82482 6.99509 4.1208 7.50865 4.57483 8.1237C5.3938 9.20311 6.25588 10.0427 7.2099 10.6915C7.32772 10.7715 7.45128 10.8391 7.57198 10.9037C7.68117 10.9622 7.78175 11.0175 7.87083 11.0759C7.88232 11.0821 7.89094 11.0882 7.90244 11.0944C7.99439 11.1436 8.08347 11.1682 8.17543 11.1682C8.40244 11.1682 8.54612 11.0144 8.5921 10.9622L9.61222 9.87044C9.76739 9.70438 9.93406 9.61827 10.0979 9.61827C10.299 9.61827 10.4628 9.75358 10.5691 9.87044L12.2128 11.6295C12.6151 12.06 12.4312 12.4475 12.2042 12.7027C12.0892 12.835 11.9686 12.958 11.8421 13.0902C11.6496 13.287 11.4513 13.4931 11.2703 13.7237C10.9599 14.0805 10.5921 14.2465 10.1122 14.2465C10.0662 14.2465 10.0174 14.2434 9.97142 14.2404C9.07773 14.1789 8.25014 13.8068 7.62657 13.49C5.92541 12.6136 4.43977 11.3681 3.20413 9.78741Z"/>
<path d="M7.69555 2.74508C7.50302 2.71125 7.32198 2.84964 7.29037 3.05261C7.25876 3.25865 7.38807 3.45239 7.57773 3.48622C8.36796 3.63075 9.08636 4.03053 9.66108 4.64251C10.2329 5.25448 10.6065 6.02637 10.7415 6.87206C10.7703 7.05658 10.9197 7.18574 11.0892 7.18574C11.1094 7.18574 11.1295 7.18266 11.1496 7.17959C11.3421 7.14576 11.4714 6.94895 11.4369 6.74598C11.2789 5.74652 10.8364 4.83317 10.1611 4.11049C9.48004 3.38473 8.62946 2.91422 7.69555 2.74508Z"/>
<path d="M13.6467 7.05663C13.6668 7.05663 13.6869 7.05356 13.7071 7.05048C13.8996 7.01666 14.0289 6.81984 13.9944 6.61687C13.7329 4.96239 13.003 3.45859 11.8852 2.26232C10.7645 1.06605 9.35933 0.284938 7.81334 0.00509052C7.62081 -0.0287372 7.43978 0.109649 7.40817 0.312615C7.37656 0.518657 7.50587 0.712398 7.69553 0.746225C9.09496 1.00147 10.3708 1.70878 11.3852 2.79434C12.3996 3.8799 13.0605 5.24531 13.299 6.74296C13.3277 6.92747 13.4772 7.05663 13.6467 7.05663Z"/>
</svg>
