<svg width="13" height="16" viewBox="0 0 13 16"  xmlns="http://www.w3.org/2000/svg">
<path d="M6.4966 0C2.91532 0 0 2.87799 0 6.41342C0 6.81593 0.0373758 7.2218 0.115525 7.61761C0.118923 7.64109 0.132514 7.71153 0.159697 7.83228C0.258233 8.26499 0.404339 8.69099 0.594616 9.09686C1.29456 10.7237 2.83377 13.2226 6.21119 15.8994C6.29613 15.9665 6.39807 16 6.5 16C6.60193 16 6.70387 15.9665 6.78881 15.8994C10.1628 13.2226 11.7054 10.7237 12.4054 9.09686C12.5957 8.69099 12.7418 8.26834 12.8403 7.83228C12.8675 7.71153 12.8811 7.64109 12.8845 7.61761C12.9592 7.2218 13 6.81593 13 6.41342C12.9932 2.87799 10.0779 0 6.4966 0ZM11.9739 7.45996C11.9739 7.46667 11.9705 7.47337 11.9705 7.48008C11.9671 7.49686 11.9569 7.54717 11.9399 7.62432C11.9399 7.62767 11.9399 7.62767 11.9399 7.63103C11.8549 8.00671 11.7292 8.37233 11.5627 8.72453C11.5593 8.72788 11.5593 8.73459 11.5559 8.73795C10.9205 10.2239 9.52744 12.4914 6.4966 14.9635C3.46576 12.4914 2.07266 10.2239 1.43727 8.73795C1.43387 8.73459 1.43387 8.72788 1.43048 8.72453C1.26738 8.37568 1.14166 8.00671 1.05332 7.63103C1.05332 7.62767 1.05332 7.62767 1.05332 7.62432C1.03293 7.54717 1.02614 7.49686 1.02274 7.48008C1.02274 7.47337 1.01934 7.46667 1.01934 7.4566C0.951385 7.11111 0.917407 6.76226 0.917407 6.41006C0.917407 3.37442 3.42159 0.902306 6.4966 0.902306C9.57162 0.902306 12.0758 3.37442 12.0758 6.41006C12.0758 6.76562 12.0418 7.11782 11.9739 7.45996Z"/>
<path d="M6.49661 2.41162C4.22348 2.41162 2.37167 4.23971 2.37167 6.48374C2.37167 8.72776 4.22348 10.5559 6.49661 10.5559C8.76974 10.5559 10.6215 8.72776 10.6215 6.48374C10.6215 4.23971 8.76974 2.41162 6.49661 2.41162ZM6.49661 9.6502C4.72635 9.6502 3.28908 8.22797 3.28908 6.48374C3.28908 4.7395 4.72975 3.31728 6.49661 3.31728C8.26347 3.31728 9.70414 4.7395 9.70414 6.48374C9.70414 8.22797 8.26686 9.6502 6.49661 9.6502Z"/>
</svg>
