<svg width="17" height="17" viewBox="0 0 17 17" xmlns="http://www.w3.org/2000/svg">
<path d="M13.4353 10.0413L9.42398 7.28593L9.31263 7.17859C9.18798 7.06193 9.18798 7.06193 9.18798 6.85459C9.18798 6.55325 9.39332 6.37793 9.72663 6.11725C10.0807 5.84059 10.5213 5.49593 10.5213 4.85459C10.5213 3.93593 9.77332 3.18793 8.85466 3.18793C7.93601 3.18793 7.18801 3.93593 7.18801 4.85459C7.18801 5.03859 7.33735 5.18793 7.52135 5.18793C7.70535 5.18793 7.85469 5.03859 7.85469 4.85459C7.85469 4.30325 8.30335 3.85459 8.85469 3.85459C9.40604 3.85459 9.85469 4.30325 9.85469 4.85459C9.85469 5.15593 9.64935 5.33125 9.31604 5.59193C8.96198 5.86859 8.52132 6.21328 8.52132 6.85459C8.52132 7.30059 8.62866 7.45059 8.85598 7.66393L13.05 10.5846C13.2313 10.7172 13.188 10.9032 13.1706 10.9572C13.1526 11.0112 13.078 11.1879 12.8533 11.1879H4.18932C3.96398 11.1879 3.88932 11.0112 3.87198 10.9572C3.85463 10.9039 3.81132 10.7172 3.99263 10.5852L7.38329 8.12459C7.53194 8.01659 7.56529 7.80793 7.45729 7.65925C7.34929 7.51056 7.14063 7.47659 6.99194 7.58525L3.60066 10.0466C3.24401 10.3059 3.10132 10.7446 3.23801 11.1646C3.37466 11.5839 3.74801 11.8552 4.18935 11.8552H12.8534C13.2947 11.8552 13.668 11.5839 13.8054 11.1639C13.9413 10.7439 13.7987 10.3053 13.4353 10.0413Z"/>
<path d="M8.52148 0.521729C4.11014 0.521729 0.521484 4.11039 0.521484 8.52173C0.521484 12.9331 4.11014 16.5217 8.52148 16.5217C12.9328 16.5217 16.5215 12.9331 16.5215 8.52173C16.5215 4.11039 12.9328 0.521729 8.52148 0.521729ZM8.52148 15.8551C4.47814 15.8551 1.18814 12.5651 1.18814 8.52173C1.18814 4.47838 4.47814 1.18838 8.52148 1.18838C12.5648 1.18838 15.8548 4.47838 15.8548 8.52173C15.8548 12.5651 12.5648 15.8551 8.52148 15.8551Z"/>
</svg>
