<svg width="15" height="15" viewBox="0 0 15 15" xmlns="http://www.w3.org/2000/svg">
<path d="M5.11362 3.75016C5.30189 3.75016 5.45452 3.59753 5.45452 3.40926C5.45452 3.22098 5.30189 3.06836 5.11362 3.06836C4.92535 3.06836 4.77272 3.22098 4.77272 3.40926C4.77272 3.59753 4.92535 3.75016 5.11362 3.75016Z"/>
<path d="M9.88773 11.9333C10.076 11.9333 10.2286 11.7806 10.2286 11.5924C10.2286 11.4041 10.076 11.2515 9.88773 11.2515C9.69945 11.2515 9.54683 11.4041 9.54683 11.5924C9.54683 11.7806 9.69945 11.9333 9.88773 11.9333Z"/>
<path d="M3.40911 5.4545C3.59738 5.4545 3.75 5.30188 3.75 5.1136C3.75 4.92533 3.59738 4.77271 3.40911 4.77271C3.22083 4.77271 3.06821 4.92533 3.06821 5.1136C3.06821 5.30188 3.22083 5.4545 3.40911 5.4545Z"/>
<path d="M11.5906 10.2277C11.7789 10.2277 11.9315 10.0751 11.9315 9.8868C11.9315 9.69852 11.7789 9.5459 11.5906 9.5459C11.4023 9.5459 11.2497 9.69852 11.2497 9.8868C11.2497 10.0751 11.4023 10.2277 11.5906 10.2277Z"/>
<path d="M9.88637 3.74869C10.0746 3.74869 10.2273 3.59607 10.2273 3.40779C10.2273 3.21952 10.0746 3.06689 9.88637 3.06689C9.6981 3.06689 9.54547 3.21952 9.54547 3.40779C9.54547 3.59607 9.6981 3.74869 9.88637 3.74869Z"/>
<path d="M5.1133 11.9323C5.30157 11.9323 5.4542 11.7797 5.4542 11.5914C5.4542 11.4031 5.30157 11.2505 5.1133 11.2505C4.92503 11.2505 4.7724 11.4031 4.7724 11.5914C4.7724 11.7797 4.92503 11.9323 5.1133 11.9323Z"/>
<path d="M11.5906 5.4545C11.7789 5.4545 11.9315 5.30188 11.9315 5.1136C11.9315 4.92533 11.7789 4.77271 11.5906 4.77271C11.4023 4.77271 11.2497 4.92533 11.2497 5.1136C11.2497 5.30188 11.4023 5.4545 11.5906 5.4545Z"/>
<path d="M3.40911 10.227C3.59738 10.227 3.75 10.0743 3.75 9.88606C3.75 9.69779 3.59738 9.54517 3.40911 9.54517C3.22083 9.54517 3.06821 9.69779 3.06821 9.88606C3.06821 10.0743 3.22083 10.227 3.40911 10.227Z"/>
<path d="M7.5 0C3.375 0 0 3.375 0 7.5C0 11.625 3.375 15 7.5 15C7.70455 15 7.8409 14.8636 7.8409 14.6591C7.8409 14.4546 7.70452 14.3182 7.5 14.3182C3.75 14.3182 0.681826 11.25 0.681826 7.5C0.681826 3.75 3.75 0.681826 7.5 0.681826C11.25 0.681826 14.3182 3.75 14.3182 7.5C14.3182 10.7727 12 13.5682 8.79545 14.1818C8.625 14.2159 8.48862 14.3864 8.52272 14.5909C8.55683 14.7955 8.72727 14.8978 8.93183 14.8637C12.4432 14.1818 15 11.0796 15 7.5C15 3.375 11.625 0 7.5 0Z"/>
<path d="M8.93182 1.53422C8.76137 1.50012 8.55682 1.60239 8.52272 1.77284C8.48862 1.94329 8.59089 2.14784 8.76134 2.18194C11.1136 2.76149 12.7841 4.77284 12.9545 7.15922H12.2727C12.0681 7.15922 11.9318 7.2956 11.9318 7.50012C11.9318 7.70464 12.0682 7.84101 12.2727 7.84101H12.9204C12.75 10.5683 10.5682 12.7501 7.84089 12.9206V12.2728C7.84089 12.0683 7.70452 11.9319 7.49999 11.9319C7.29547 11.9319 7.1591 12.0683 7.1591 12.2728V12.9206C4.43182 12.7501 2.24999 10.5683 2.07954 7.84101H2.72727C2.93182 7.84101 3.06817 7.70464 3.06817 7.50012C3.06817 7.2956 2.93179 7.15922 2.72727 7.15922H2.04544C2.21589 4.43194 4.43182 2.21604 7.15907 2.0456V2.72742C7.15907 2.93197 7.29544 3.06832 7.49996 3.06832C7.70449 3.06832 7.84086 2.93194 7.84086 2.72742V1.70467C7.84086 1.50012 7.70449 1.36377 7.49996 1.36377C4.12499 1.36374 1.36362 4.12512 1.36362 7.50012C1.36362 10.8751 4.12499 13.6365 7.49999 13.6365C10.875 13.6365 13.6364 10.8751 13.6364 7.50012C13.6364 4.67057 11.6932 2.21602 8.93182 1.53422Z"/>
<path d="M10.4659 9.98844L8.42045 7.94299C8.48863 7.80661 8.52273 7.67026 8.52273 7.49981C8.52273 7.05664 8.25 6.68164 7.8409 6.54526V4.77254C7.8409 4.56799 7.70453 4.43164 7.5 4.43164C7.29548 4.43164 7.15911 4.56802 7.15911 4.77254V6.54526C6.75 6.68164 6.47728 7.05664 6.47728 7.49981C6.47728 8.07937 6.92045 8.52254 7.5 8.52254C7.67045 8.52254 7.80683 8.48844 7.94318 8.42026L9.98863 10.4657C10.0568 10.5339 10.1591 10.568 10.2273 10.568C10.2955 10.568 10.3977 10.5339 10.4659 10.4657C10.6023 10.3294 10.6023 10.1248 10.4659 9.98844ZM7.5 7.84071C7.29545 7.84071 7.15911 7.70434 7.15911 7.49981C7.15911 7.29529 7.29548 7.15892 7.5 7.15892C7.70453 7.15892 7.8409 7.29529 7.8409 7.49981C7.8409 7.70434 7.70456 7.84071 7.5 7.84071Z"/>
</svg>
