<svg width="100" height="100" viewBox="0 0 100 100" fill="none" xmlns="http://www.w3.org/2000/svg">
<circle cx="50" cy="50" r="50" fill="#F5EAE4"/>
<path d="M57.798 42.6642C57.9558 41.9704 58.64 41.5367 59.327 41.6967C60.0134 41.8562 60.4422 42.548 60.2843 43.2421C59.9836 44.5634 59.5338 45.8535 58.9468 47.0764C57.1248 50.8723 54.4876 55.378 55.4439 62.5093C55.6582 64.1072 57.0231 65.312 58.6184 65.312C60.9869 65.312 74.6564 65.312 77.3807 65.312C78.9762 65.312 80.3409 64.1072 80.5554 62.5093C81.5065 55.4163 78.9012 50.9281 77.0525 47.0763C73.9977 40.7115 74.6454 32.9674 80.2047 26.7276C81.0066 25.8273 81.4482 24.6643 81.4482 23.4532C81.4482 22.0543 80.4605 20.8533 79.0994 20.5975L76.2427 20.0604C73.5831 19.5604 71.6256 17.2814 71.4848 14.5781H64.5138C64.373 17.2814 62.4156 19.5603 59.7561 20.0604L56.8993 20.5977C55.5383 20.8533 54.5507 22.0545 54.5507 23.4532C54.5507 24.6643 54.9924 25.8273 55.7941 26.7275C58.3315 29.5775 60.0199 32.675 60.5716 36.7629C60.667 37.4683 60.1782 38.1181 59.4802 38.2144C58.7829 38.311 58.1391 37.8168 58.0439 37.1113C57.5593 33.521 56.0732 30.8944 53.8982 28.4522C52.6744 27.0777 52 25.3024 52 23.4532C52 20.8127 53.8646 18.5455 56.4333 18.0629L59.2899 17.5258C60.8435 17.2336 61.9712 15.8624 61.9712 14.2655C61.9713 13.0163 62.9772 12 64.2131 12H71.7867C73.0228 12 74.0287 13.0163 74.0287 14.2657C74.0287 15.8627 75.1563 17.2338 76.7101 17.526L79.5666 18.0631C82.1356 18.5459 84 20.8129 84 23.4534C84 25.7428 83.1183 27.311 81.7427 28.8554C77.5586 33.5536 76.6186 40.264 79.3484 45.9512C81.2065 49.8223 84.1492 54.9129 83.0838 62.8558C82.6987 65.7259 80.2471 67.8905 77.3811 67.8905H71.0948V88.7138C73.8159 89.3589 76.2776 90.8506 78.1508 93.0267C79.9049 93.1941 81.282 94.6896 81.282 96.5049C81.282 98.4322 79.7305 100 77.8233 100H70.8946C70.19 100 69.6191 99.423 69.6191 98.7109C69.6191 97.9989 70.19 97.4219 70.8946 97.4219H77.8233C78.3235 97.4219 78.7306 97.0106 78.7306 96.5051C78.7306 95.9996 78.3235 95.5883 77.8233 95.5883C73.8394 95.5883 62.4843 95.5883 58.1767 95.5883C57.6765 95.5883 57.2695 95.9996 57.2695 96.5051C57.2695 97.0106 57.6765 97.4219 58.1767 97.4219H64.9412C65.6459 97.4219 66.2168 97.9989 66.2168 98.7109C66.2168 99.423 65.6459 100 64.9412 100H58.1767C56.2696 100 54.7182 98.432 54.7182 96.5049C54.7182 94.6894 56.0953 93.1939 57.8493 93.0265C59.7226 90.8504 62.1843 89.359 64.905 88.7137V67.8903H58.6188C55.7524 67.8903 53.3009 65.7257 52.9162 62.8554C51.85 54.905 54.8117 49.7843 56.6516 45.9512C57.1547 44.9027 57.5405 43.7969 57.798 42.6642ZM68.5435 67.8903H67.4565V88.3635C67.8642 88.3472 68.2152 88.3505 68.5435 88.3635V67.8903ZM61.6208 93.0098H74.3792C70.6002 90.2471 65.4227 90.2305 61.6208 93.0098Z" fill="#5D5D5E"/>
</svg>
