<svg width="104" height="100" viewBox="0 0 104 100" fill="none" xmlns="http://www.w3.org/2000/svg">
<circle cx="50" cy="50" r="50" fill="#F5EAE4"/>
<path d="M87.9105 13.1464L58.1759 13.0059L56.9983 13L55.8214 13.0059L26.0864 13.1464L10 42.3377L56.0101 98.7863L57.001 100L57.991 98.7863L104 42.3377L87.9105 13.1464ZM54.8805 15.2956L37.804 40.0859L28.386 15.4204L54.8805 15.2956ZM26.5607 16.9636L35.8242 41.2239L13.27 41.0822L26.5607 16.9636ZM13.7604 43.3696L36.679 43.5136L53.6902 92.3589L13.7604 43.3696ZM55.7538 91.4285L39.0712 43.5304L55.8595 43.6354L55.7538 91.4285ZM55.8637 41.3476L39.7534 41.2473L55.8329 17.9018L55.9156 17.7812L55.8729 36.9301L55.8637 41.3476ZM100.725 41.0822L78.1727 41.2215L87.4362 16.9612L100.725 41.0822ZM85.6098 15.4204L76.1902 40.0859L59.1141 15.2956L85.6098 15.4204ZM58.1229 36.9305L58.0814 17.7816L58.1651 17.9022L74.2435 41.2477L58.1344 41.348L58.1229 36.9305ZM58.1382 43.633L74.9246 43.528L58.2439 91.4262L58.1382 43.633ZM60.3056 92.3589L77.3175 43.5136L100.237 43.3696L60.3056 92.3589Z" fill="#5D5D5E"/>
</svg>
