<svg width="104" height="100" viewBox="0 0 104 100" fill="none" xmlns="http://www.w3.org/2000/svg">
<circle cx="50" cy="50" r="50" fill="#F5EAE4"/>
<path d="M103.744 78.7775C103.696 78.7082 103.642 78.6432 103.583 78.5833H103.581L71.583 46.2043C70.2144 44.2672 69.8823 41.7839 70.6942 39.5562L72.469 34.6845C74.155 30.0547 75.0114 25.1649 74.9992 20.2388V17.3433C74.9992 14.9445 73.0517 13 70.6492 13H67.7492C67.3188 12.9995 66.9102 13.1898 66.6342 13.5197C65.1191 15.3407 62.8703 16.3932 60.4992 16.3906C58.1285 16.3935 55.8797 15.3416 54.3643 13.5212C54.0886 13.1907 53.68 12.9998 53.2492 13H50.3492C47.9468 13 45.9992 14.9445 45.9992 17.3433V20.3358C45.9961 25.2292 46.8531 30.0853 48.5309 34.683L50.3057 39.5547C51.1175 41.7825 50.7855 44.2657 49.4169 46.2028L17.4168 78.5833C16.855 79.153 16.862 80.0696 17.4326 80.6306C17.4926 80.6896 17.5577 80.7434 17.6271 80.7911L33.3349 91.6073C49.711 102.798 71.289 102.798 87.665 91.6073L103.373 80.7911C104.032 80.3374 104.198 79.4359 103.744 78.7775ZM86.0192 89.22C70.6344 99.7307 50.3641 99.7307 34.9792 89.22L20.6953 79.3854L51.56 48.1573C51.6129 48.1064 51.6613 48.0512 51.705 47.9922C53.6926 45.2677 54.191 41.734 53.0346 38.5674L51.2598 33.6957C49.6886 29.383 48.8894 24.828 48.8992 20.2388V17.3433C48.8992 16.5437 49.5485 15.8955 50.3492 15.8955H52.5996C54.6532 18.0633 57.5108 19.2898 60.4992 19.2862C63.4877 19.2898 66.3454 18.0633 68.3988 15.8955H70.6492C71.45 15.8955 72.0992 16.5437 72.0992 17.3433V20.3358C72.1018 24.8919 71.3043 29.413 69.743 33.6942L67.9682 38.5659C66.8118 41.7325 67.3102 45.2663 69.2978 47.9908C69.3415 48.0498 69.3899 48.105 69.4428 48.1558L100.308 79.3839L86.0192 89.22Z" fill="#5D5D5E"/>
<rect width="2.9" height="2.89551" fill="black" fill-opacity="0" transform="translate(83.6992 24.582)"/>
<rect width="2.9" height="2.89551" fill="black" fill-opacity="0" transform="translate(83.6992 24.582)"/>
<path d="M86.5992 24.582H83.6992V27.4775H86.5992V24.582Z" fill="#5D5D5E"/>
<rect width="2.9" height="2.89551" fill="black" fill-opacity="0" transform="translate(86.5992 27.4775)"/>
<rect width="2.9" height="2.89551" fill="black" fill-opacity="0" transform="translate(86.5992 27.4775)"/>
<path d="M89.4992 27.4775H86.5992V30.373H89.4992V27.4775Z" fill="#5D5D5E"/>
<rect width="2.9" height="2.89551" fill="black" fill-opacity="0" transform="translate(80.7992 27.4775)"/>
<rect width="2.9" height="2.89551" fill="black" fill-opacity="0" transform="translate(80.7992 27.4775)"/>
<path d="M83.6992 27.4775H80.7992V30.373H83.6992V27.4775Z" fill="#5D5D5E"/>
<rect width="2.9" height="2.89551" fill="black" fill-opacity="0" transform="translate(83.6992 30.3735)"/>
<rect width="2.9" height="2.89551" fill="black" fill-opacity="0" transform="translate(83.6992 30.3735)"/>
<path d="M86.5992 30.3735H83.6992V33.269H86.5992V30.3735Z" fill="#5D5D5E"/>
<rect width="2.9" height="2.89551" fill="black" fill-opacity="0" transform="translate(93.8491 14.4478)"/>
<rect width="2.9" height="2.89551" fill="black" fill-opacity="0" transform="translate(93.8491 14.4478)"/>
<path d="M96.7491 14.4478H93.8491V17.3433H96.7491V14.4478Z" fill="#5D5D5E"/>
<rect width="2.9" height="2.89551" fill="black" fill-opacity="0" transform="translate(38.7493 37.6118)"/>
<rect width="2.9" height="2.89551" fill="black" fill-opacity="0" transform="translate(38.7493 37.6118)"/>
<path d="M41.6493 37.6118H38.7493V40.5073H41.6493V37.6118Z" fill="#5D5D5E"/>
<rect width="2.9" height="2.89551" fill="black" fill-opacity="0" transform="translate(41.6493 40.5073)"/>
<rect width="2.9" height="2.89551" fill="black" fill-opacity="0" transform="translate(41.6493 40.5073)"/>
<path d="M44.5493 40.5073H41.6493V43.4028H44.5493V40.5073Z" fill="#5D5D5E"/>
<rect width="2.9" height="2.89551" fill="black" fill-opacity="0" transform="translate(35.8492 40.5073)"/>
<rect width="2.9" height="2.89551" fill="black" fill-opacity="0" transform="translate(35.8492 40.5073)"/>
<path d="M38.7492 40.5073H35.8492V43.4028H38.7492V40.5073Z" fill="#5D5D5E"/>
<rect width="2.9" height="2.89551" fill="black" fill-opacity="0" transform="translate(38.7493 43.4028)"/>
<rect width="2.9" height="2.89551" fill="black" fill-opacity="0" transform="translate(38.7493 43.4028)"/>
<path d="M41.6493 43.4028H38.7493V46.2983H41.6493V43.4028Z" fill="#5D5D5E"/>
<rect width="2.9" height="2.89551" fill="black" fill-opacity="0" transform="translate(22.7992 17.3433)"/>
<rect width="2.9" height="2.89551" fill="black" fill-opacity="0" transform="translate(22.7992 17.3433)"/>
<path d="M25.6992 17.3433H22.7992V20.2388H25.6992V17.3433Z" fill="#5D5D5E"/>
<rect width="2.9" height="2.89551" fill="black" fill-opacity="0" transform="translate(27.1492 56.4326)"/>
<rect width="2.9" height="2.89551" fill="black" fill-opacity="0" transform="translate(27.1492 56.4326)"/>
<path d="M30.0492 56.4326H27.1492V59.3281H30.0492V56.4326Z" fill="#5D5D5E"/>
<rect width="2.9" height="2.89551" fill="black" fill-opacity="0" transform="translate(89.4991 50.6411)"/>
<rect width="2.9" height="2.89551" fill="black" fill-opacity="0" transform="translate(89.4991 50.6411)"/>
<path d="M92.3991 50.6411H89.4991V53.5366H92.3991V50.6411Z" fill="#5D5D5E"/>
</svg>
