<svg width="104" height="100" viewBox="0 0 104 100" fill="none" xmlns="http://www.w3.org/2000/svg">
<circle cx="50" cy="50" r="50" fill="#F5EAE4"/>
<path d="M103.713 60.566L95.8263 44.8715C95.1162 43.4585 93.7589 42.5811 92.284 42.5811C89.6247 42.5811 34.3704 42.5811 31.7159 42.5811C30.2408 42.5811 28.8837 43.4585 28.1736 44.8715L20.2874 60.566C19.8704 61.3958 19.9095 62.403 20.3895 63.1938C20.8346 63.9272 21.5903 64.3648 22.411 64.3648H28.8322V95.936C28.8322 98.1768 30.5016 100 32.5538 100C33.3957 100 90.6048 100 91.4468 100C93.4988 100 95.1684 98.177 95.1684 95.936V82.3829C95.1684 81.6708 94.5978 81.0937 93.8934 81.0937C93.1889 81.0937 92.6183 81.6707 92.6183 82.3829V95.9362C92.6183 96.7415 92.0818 97.4219 91.4466 97.4219H63.2751V49.2536L69.9249 62.4871C70.5067 63.6455 71.6242 64.3652 72.8408 64.3652H92.618V76.3671C92.618 77.0792 93.1886 77.6563 93.893 77.6563C94.5974 77.6563 95.1681 77.0793 95.1681 76.3671V64.3652H101.589C102.41 64.3652 103.166 63.9274 103.611 63.1942C104.09 62.4028 104.13 61.396 103.713 60.566ZM22.5485 61.7868C22.5485 61.7705 22.5517 61.7523 22.5608 61.7341L30.447 46.0395C30.7197 45.4968 31.206 45.1595 31.7161 45.1595H59.9221C58.9476 47.0992 53.1173 58.7015 51.802 61.3193V61.3195C51.657 61.6077 51.4109 61.7868 51.1594 61.7868C50.4401 61.7868 23.325 61.7868 22.5485 61.7868ZM60.725 97.4217H32.5536C31.9186 97.4219 31.3821 96.7416 31.3821 95.9362V64.365H51.1593C52.3803 64.365 53.4954 63.6414 54.0752 62.4871L60.725 49.2535V97.4217ZM72.8408 61.7867C72.5894 61.7867 72.3431 61.6076 72.1982 61.3192L64.0781 45.1594H92.2841C92.7941 45.1594 93.2802 45.4966 93.5532 46.0394L101.439 61.7339C101.449 61.7521 101.452 61.7703 101.452 61.7867C100.674 61.7867 73.5603 61.7867 72.8408 61.7867Z" fill="#5D5D5E"/>
<path d="M61.9995 16.0083C59.1577 11.3981 52.7808 10.6195 48.9408 14.5077C47.3545 16.1139 46.4822 18.246 46.4844 20.5115C46.4908 27.0579 50.8258 33.3951 58.3775 37.8981C58.5808 38.0195 58.8038 38.077 59.024 38.077C59.4603 38.077 59.8854 37.8503 60.1233 37.4426C60.4809 36.8296 60.2793 36.0389 59.6728 35.6773C56.4769 33.7714 49.0423 28.4783 49.034 20.5089C49.0306 16.9583 52.124 14.167 55.6566 14.6479C58.8139 15.0781 59.9072 17.5865 60.1501 17.8426C61.2761 19.0304 62.8127 19.0345 63.8723 17.807C64.1553 17.4761 65.5221 14.5812 69.1193 14.5775C72.3395 14.5775 74.9626 17.2262 74.9661 20.4821C74.9738 28.0697 68.2983 33.2566 64.3186 35.6732C63.715 36.0398 63.5195 36.8316 63.8821 37.4421C64.2449 38.0526 65.0278 38.2498 65.6316 37.8835C73.302 33.2258 77.5229 27.0448 77.5162 20.4793C77.5071 12.1805 66.7205 8.6479 61.9995 16.0083Z" fill="#5D5D5E"/>
</svg>
