<svg width="104" height="100" viewBox="0 0 104 100" fill="none" xmlns="http://www.w3.org/2000/svg">
<circle cx="50" cy="50" r="50" fill="#F5EAE4"/>
<path d="M37.3032 70.5087C37.3032 84.3314 48.6058 95.5765 62.4992 95.5765C76.3926 95.5765 87.6952 84.3314 87.6952 70.5087C87.6952 56.686 76.3926 45.4409 62.4992 45.4409C48.6058 45.4409 37.3032 56.686 37.3032 70.5087ZM84.7309 70.5087C84.7309 82.7049 74.7578 92.6274 62.4992 92.6274C50.2406 92.6274 40.2675 82.7049 40.2675 70.5087C40.2675 58.3125 50.2406 48.3901 62.4992 48.3901C74.7578 48.3901 84.7309 58.3125 84.7309 70.5087Z" fill="#5D5D5E"/>
<path d="M41.4354 92.154C42.0075 90.933 41.8163 89.5292 40.9374 88.4911C36.6838 83.4569 34.339 77.0705 34.339 70.5087C34.339 62.6787 37.6842 55.151 43.5163 49.8543C44.5612 48.9047 44.9051 47.4448 44.3937 46.1339C43.8809 44.8171 42.63 43.9663 41.2116 43.9663H25.3885C22.9683 43.9663 21 45.9245 21 48.3325V89.7357C21 92.1437 22.9683 94.1019 25.3885 94.1019H38.3556C39.6939 94.1019 40.8737 93.3558 41.4354 92.154ZM38.7498 90.9094C38.6728 91.0702 38.5408 91.1527 38.3526 91.1527H25.3885C24.603 91.1527 23.9642 90.5172 23.9642 89.7357V48.3325C23.9642 47.551 24.603 46.9155 25.3885 46.9155H41.2116C41.4665 46.9155 41.5807 47.0703 41.6311 47.2001C41.68 47.3254 41.7007 47.5112 41.5184 47.6763C35.0727 53.5289 31.3748 61.8514 31.3748 70.5087C31.3748 77.7651 33.9656 84.8253 38.6698 90.3874C38.8491 90.6027 38.7973 90.8077 38.7498 90.9094Z" fill="#5D5D5E"/>
<path d="M99.6099 43.9663H83.7853C82.3655 43.9663 81.116 44.8171 80.6032 46.1339C80.0919 47.4463 80.4357 48.9061 81.4806 49.8543C87.3142 55.151 90.6594 62.6787 90.6594 70.5087C90.6594 77.0705 88.3162 83.4569 84.0595 88.4897C83.1806 89.5278 82.9894 90.9316 83.5615 92.1525C84.1232 93.3558 85.3045 94.1019 86.6443 94.1019H99.6114C102.032 94.1019 104 92.1437 104 89.7357V48.3325C103.998 45.9245 102.03 43.9663 99.6099 43.9663ZM101.034 89.7357C101.034 90.5172 100.395 91.1527 99.6099 91.1527H86.6429C86.4576 91.1527 86.3242 91.0702 86.2486 90.9094C86.2012 90.8077 86.1478 90.6027 86.3272 90.3874C91.0314 84.8253 93.6236 77.7651 93.6236 70.5087C93.6236 61.8529 89.9272 53.5304 83.48 47.6778C83.2977 47.5127 83.3185 47.3269 83.3674 47.2015C83.4192 47.0703 83.5319 46.9155 83.7853 46.9155H99.6084C100.394 46.9155 101.033 47.551 101.033 48.3325C101.033 48.3325 101.033 89.7357 101.034 89.7357Z" fill="#5D5D5E"/>
<path d="M50.6423 70.5085C50.6423 77.0129 55.9617 82.3051 62.4993 82.3051C69.0369 82.3051 74.3562 77.0129 74.3562 70.5085C74.3562 64.0042 69.0369 58.7119 62.4993 58.7119C55.9617 58.7119 50.6423 64.0042 50.6423 70.5085ZM71.392 70.5085C71.392 75.3879 67.4036 79.356 62.4993 79.356C57.5949 79.356 53.6066 75.3879 53.6066 70.5085C53.6066 65.6292 57.5949 61.6611 62.4993 61.6611C67.4036 61.6611 71.392 65.6292 71.392 70.5085Z" fill="#5D5D5E"/>
<path d="M37.3032 35.1187H25.4463V42.4915H37.3032V35.1187ZM34.339 39.5424H28.4105V38.0678H34.339V39.5424Z" fill="#5D5D5E"/>
<path d="M87.6953 42.4916H98.0701C98.8897 42.4916 99.5522 41.8325 99.5522 41.0171C99.5522 40.2016 98.8897 39.5425 98.0701 39.5425H87.6953C86.8771 39.5425 86.2131 40.2016 86.2131 41.0171C86.2131 41.8325 86.8771 42.4916 87.6953 42.4916Z" fill="#5D5D5E"/>
<path d="M44.7138 43.9661C45.5319 43.9661 46.1959 43.307 46.1959 42.4915H58.0529H66.9456H78.8025C78.8025 43.307 79.4665 43.9661 80.2846 43.9661C81.1027 43.9661 81.7667 43.307 81.7667 42.4915V41.017C81.7667 40.2015 81.1027 39.5424 80.2846 39.5424H66.9456V35.7247C71.2852 33.9699 74.3561 29.7364 74.3561 24.7966C74.3561 18.2923 69.0368 13 62.4992 13C55.9616 13 50.6423 18.2923 50.6423 24.7966C50.6423 29.7364 53.7132 33.9699 58.0529 35.7247V39.5424H44.7138C43.8957 39.5424 43.2317 40.2015 43.2317 41.017V42.4915C43.2317 43.307 43.8957 43.9661 44.7138 43.9661ZM63.9813 39.5424H61.0171V36.5003C61.0497 36.5047 61.0823 36.5033 61.1149 36.5062C61.5684 36.5593 62.0309 36.5932 62.4992 36.5932C62.9676 36.5932 63.4285 36.5593 63.8835 36.5062C63.9161 36.5018 63.9487 36.5047 63.9813 36.5003V39.5424ZM53.6065 24.7966C53.6065 19.9172 57.5949 15.9492 62.4992 15.9492C67.4035 15.9492 71.3919 19.9172 71.3919 24.7966C71.3919 28.7426 68.7819 32.0913 65.1892 33.2282L65.0618 33.2666C65.047 33.271 65.0307 33.274 65.0144 33.2784C64.6453 33.386 64.2703 33.4642 63.8939 33.5246C63.8227 33.5364 63.7516 33.5482 63.6805 33.5571C62.8949 33.6618 62.102 33.6618 61.3165 33.5571C61.2453 33.5482 61.1742 33.5364 61.1031 33.5246C60.7266 33.4642 60.3516 33.386 59.9826 33.2784C59.9677 33.274 59.9514 33.271 59.9351 33.2666L59.8077 33.2282C56.215 32.0913 53.6065 28.7426 53.6065 24.7966Z" fill="#5D5D5E"/>
<path d="M83.249 94.1016C82.4308 94.1016 81.7668 94.7607 81.7668 95.5761V97.0507H43.2318V95.5761C43.2318 94.7607 42.5678 94.1016 41.7497 94.1016C40.9316 94.1016 40.2676 94.7607 40.2676 95.5761V98.5253C40.2676 99.3407 40.9316 99.9999 41.7497 99.9999H83.249C84.0671 99.9999 84.7311 99.3407 84.7311 98.5253V95.5761C84.7311 94.7607 84.0656 94.1016 83.249 94.1016Z" fill="#5D5D5E"/>
<path d="M68.4277 24.7967C68.4277 21.5438 65.7688 18.8984 62.4993 18.8984C59.2297 18.8984 56.5708 21.5438 56.5708 24.7967C56.5708 28.0497 59.2297 30.695 62.4993 30.695C65.7688 30.695 68.4277 28.0497 68.4277 24.7967ZM59.535 24.7967C59.535 23.1703 60.8645 21.8476 62.4993 21.8476C64.134 21.8476 65.4635 23.1703 65.4635 24.7967C65.4635 26.4232 64.134 27.7459 62.4993 27.7459C60.8645 27.7459 59.535 26.4232 59.535 24.7967Z" fill="#5D5D5E"/>
</svg>
