<svg width="41" height="41" viewBox="0 0 41 41" fill="none" xmlns="http://www.w3.org/2000/svg">
<circle cx="20.5" cy="20.5" r="20.5" fill="#C6D088"/>
<path d="M30.4754 13.6931C29.5406 12.769 28.0197 12.769 27.0849 13.6931L18.2304 22.4478L15.0915 19.3443C14.1568 18.4201 12.6358 18.4201 11.7011 19.3443C10.7663 20.2685 10.7663 21.7723 11.7011 22.6965L17.107 28.0416C17.4167 28.3478 17.8236 28.5009 18.2304 28.5009C18.6372 28.5009 19.044 28.3478 19.3538 28.0416L30.4754 17.0453C31.41 16.1211 31.41 14.6174 30.4754 13.6931ZM29.6063 16.186L18.4847 27.1824C18.3445 27.321 18.1163 27.321 17.9761 27.1824L12.5702 21.8373C12.1146 21.3869 12.1146 20.6541 12.5702 20.2037C12.798 19.9784 13.0971 19.8659 13.3963 19.8659C13.6955 19.8659 13.9947 19.9784 14.2224 20.2037L17.4515 23.3964C17.6596 23.6021 17.9363 23.7153 18.2304 23.7153C18.5247 23.7153 18.8014 23.602 19.0094 23.3963L27.954 14.5524C28.4094 14.102 29.1507 14.102 29.6063 14.5524C30.0618 15.0028 30.0618 15.7356 29.6063 16.186Z" fill="black"/>
</svg>
