<svg width="59" height="58" viewBox="0 0 59 58" fill="none" xmlns="http://www.w3.org/2000/svg">
<rect width="58.6743" height="58" fill="black" fill-opacity="0" transform="translate(0.325684)"/>
<rect x="0.8125" width="58.1875" height="58" rx="22" fill="#F5EAE4"/>
<path d="M41.8102 0H17.5154C8.03699 0 0.325684 7.6227 0.325684 16.9922V41.0078C0.325684 50.3773 8.03699 58 17.5154 58H41.8102C51.2886 58 59 50.3773 59 41.0078V16.9922C59 7.6227 51.2886 0 41.8102 0ZM56.708 41.0078C56.708 49.128 50.0248 55.7344 41.8102 55.7344H17.5154C9.30078 55.7344 2.61765 49.128 2.61765 41.0078V16.9922C2.61765 8.87196 9.30078 2.26562 17.5154 2.26562H41.8102C50.0248 2.26562 56.708 8.87196 56.708 16.9922V41.0078Z" fill="black"/>
<path d="M28.918 50.2969H19.5782C18.9454 50.2969 18.4323 50.804 18.4323 51.4297C18.4323 52.0553 18.9454 52.5625 19.5782 52.5625H28.918C29.5509 52.5625 30.064 52.0553 30.064 51.4297C30.064 50.804 29.5508 50.2969 28.918 50.2969Z" fill="black"/>
<path d="M34.1322 50.2969H34.1185C33.4857 50.2969 32.9725 50.804 32.9725 51.4297C32.9725 52.0553 33.4857 52.5625 34.1185 52.5625H34.1322C34.7651 52.5625 35.2781 52.0553 35.2781 51.4297C35.2781 50.804 34.765 50.2969 34.1322 50.2969Z" fill="black"/>
<path d="M20.4756 17.6395C20.0427 17.183 19.3177 17.1597 18.8557 17.5873L18.805 17.6345C18.3446 18.0639 18.3235 18.7808 18.758 19.2359C18.9834 19.4721 19.2872 19.5912 19.5917 19.5912C19.8738 19.5912 20.1565 19.4888 20.3779 19.2823L20.4227 19.2408C20.8846 18.813 20.9083 18.0961 20.4756 17.6395Z" fill="black"/>
<path d="M29.6628 13.3672C27.1458 13.3672 24.6407 13.9666 22.4183 15.1005C21.8559 15.3874 21.6353 16.0708 21.9256 16.6267C22.216 17.1826 22.9073 17.4006 23.4696 17.1137C25.3954 16.131 27.4791 15.6328 29.6628 15.6328C37.1191 15.6328 43.1854 21.6294 43.1854 29C43.1854 36.3706 37.1191 42.3672 29.6628 42.3672C22.2065 42.3672 16.1402 36.3706 16.1402 29C16.1402 26.6869 16.747 24.4079 17.8951 22.4095C18.2076 21.8655 18.0148 21.1741 17.4644 20.865C16.914 20.5562 16.2146 20.7467 15.902 21.2908C14.5584 23.6296 13.8483 26.2954 13.8483 29C13.8483 37.6199 20.9427 44.6328 29.6628 44.6328C38.3829 44.6328 45.4774 37.6199 45.4774 29C45.4774 20.3801 38.3829 13.3672 29.6628 13.3672Z" fill="black"/>
<path d="M29.6628 18.8047C23.9758 18.8047 19.349 23.3783 19.349 29C19.349 34.6217 23.9758 39.1953 29.6628 39.1953C35.3499 39.1953 39.9767 34.6217 39.9767 29C39.9767 23.3783 35.3499 18.8047 29.6628 18.8047ZM29.6628 36.9297C25.2396 36.9297 21.641 33.3724 21.641 29C21.641 24.6276 25.2396 21.0703 29.6628 21.0703C34.0861 21.0703 37.6847 24.6276 37.6847 29C37.6847 33.3724 34.0861 36.9297 29.6628 36.9297Z" fill="black"/>
<path d="M44.7038 9.82715C42.3027 9.82715 40.3491 11.7583 40.3491 14.1318C40.3491 16.5054 42.3027 18.4365 44.7038 18.4365C47.105 18.4365 49.0586 16.5054 49.0586 14.1318C49.0586 11.7583 47.105 9.82715 44.7038 9.82715ZM44.7038 16.1709C43.5665 16.1709 42.6411 15.2562 42.6411 14.1318C42.6411 13.0075 43.5665 12.0928 44.7038 12.0928C45.8412 12.0928 46.7666 13.0075 46.7666 14.1318C46.7666 15.2562 45.8412 16.1709 44.7038 16.1709Z" fill="black"/>
</svg>
