<svg width="211" height="52" viewBox="0 0 211 52" xmlns="http://www.w3.org/2000/svg">
<path d="M67.868 0.310633H63.0514V22.6296H67.868V0.310633ZM81.7741 22.9403L92.3552 0.310633H91.9668L84.0426 17.3333L75.7766 0.310633H70.556L81.6498 22.9403H81.7741ZM92.2309 11.4779C92.2309 18.1565 97.6225 22.9403 103.869 22.9403C110.115 22.9403 115.506 18.1565 115.506 11.4779C115.506 4.78375 110.115 0 103.869 0C97.6225 0 92.2309 4.78375 92.2309 11.4779ZM97.6225 11.4779C97.6225 4.00717 99.5336 0.310633 103.869 0.310633C108.172 0.310633 110.115 4.00717 110.115 11.4779C110.115 18.9331 108.172 22.6296 103.869 22.6296C99.5336 22.6296 97.6225 18.9331 97.6225 11.4779ZM123.415 0.667861H127.144C130.453 0.667861 132.52 2.51613 132.52 6.33692C132.52 10.0956 130.36 11.8817 127.02 11.8817H123.415V0.667861ZM123.415 12.2389H126.305C129.179 12.2389 130.267 13.3572 131.152 16.2151L132.178 19.368C132.566 20.5484 132.877 21.5735 133.576 22.6296H138.875C137.88 21.4803 137.507 20.4552 136.995 18.9331L135.969 15.9665C135.115 13.3883 133.033 12.27 129.816 12.1458V12.0836C133.359 12.006 137.507 10.3286 137.507 6.1816C137.507 2.09677 133.701 0.310633 128.791 0.310633H118.598V22.6296H123.415V12.2389ZM151.693 12.6894L144.359 0.310633H138.937L146.939 13.3572V22.6296H151.786V13.1864L159.757 0.310633H159.4L151.693 12.6894Z"/>
<path d="M83.157 52H83.2813L91.2521 29.3704H90.8636L84.0737 48.6607L77.0974 29.3704H74.891L76.9264 34.9773L72.2186 48.5675L65.1334 29.3704H62.865L71.2552 52H71.3795L77.1284 35.4899L83.157 52ZM94.6548 51.6894H109.509V51.3322H96.8922V40.3979H106.075V40.0562H96.8922V29.7276H109.136V29.3704H94.6548V51.6894ZM120.385 51.6894C128.169 51.6894 133.017 47.0609 133.017 40.3357C133.017 33.6727 128.2 29.3704 120.385 29.3704H113.89V51.6894H120.385ZM130.624 40.3357C130.624 47.092 127.33 51.3322 120.199 51.3322H116.112V29.7276H120.136C127.33 29.7276 130.624 33.5795 130.624 40.3357ZM143.567 51.6894C151.351 51.6894 156.199 47.0609 156.199 40.3357C156.199 33.6727 151.382 29.3704 143.567 29.3704H137.057V51.6894H143.567ZM153.806 40.3357C153.806 47.092 150.512 51.3322 143.381 51.3322H139.294V29.7276H143.318C150.512 29.7276 153.806 33.5795 153.806 40.3357ZM162.476 29.3704H160.239V51.6894H162.476V29.3704ZM186.093 48.6296L168.536 29.0598H168.396V51.6894H168.753V32.3369L186.326 52H186.451V29.3704H186.093V48.6296ZM211 52V41.6715H208.794V44.5759C208.794 49.0024 205.515 51.6894 201.522 51.6894C196.301 51.6894 192.914 47.7288 192.914 40.5687C192.914 33.362 196.581 29.4014 201.879 29.4014C205.577 29.4014 208.669 31.1876 210.099 34.822L210.394 34.6977C208.856 30.7838 205.546 29.0598 201.724 29.0598C195.571 29.0598 190.459 33.8124 190.459 40.5687C190.459 47.2473 195.338 52 201.491 52C205.298 52 207.939 49.8101 208.949 47.325L210.876 52H211Z"/>
<path fill-rule="evenodd" clip-rule="evenodd" d="M32.3492 33.1135C33.1416 33.7348 34.7264 35.7539 34.7109 37.4468C32.3492 37.5866 30.9508 37.1673 29.3971 36.049C28.4803 35.3967 27.1441 33.4552 27.2529 31.5448C29.5835 31.4516 30.9042 31.9642 32.3492 33.1135ZM12.2902 33.1135C11.4978 33.7348 9.9285 35.7539 9.9285 37.4468C12.3057 37.5866 13.7041 37.1673 15.2423 36.049C16.1591 35.3967 17.5108 33.4552 17.3865 31.5448C15.0559 31.4516 13.7352 31.9642 12.2902 33.1135ZM22.3275 33.331L22.2964 33.3154C19.0957 34.822 17.9303 40.3202 20.0901 44.4672C20.5873 45.4301 21.5351 46.8124 22.3275 47.2473C23.1199 46.8124 24.0521 45.4301 24.5493 44.4672C26.7091 40.3202 25.5593 34.822 22.343 33.3154L22.3275 33.331ZM22.3275 49.1733C22.2809 49.1888 22.2342 49.2043 22.2032 49.2198C21.6127 48.552 21.1466 48.3501 20.6028 47.7133C17.8371 44.4206 16.6096 40.227 18.2256 36.0335C18.8626 34.3871 19.7948 33.4241 20.8359 32.4457L18.9403 31.8244C18.5829 32.4922 18.4586 34.0299 17.8216 35.1792C16.0814 38.3166 12.0571 39.5436 8.34367 38.6117C8.2349 37.043 9.04286 34.8686 9.9285 33.6105C10.3635 32.9893 10.3946 33.0048 10.9074 32.4767C11.4512 31.9486 11.4512 31.902 12.1193 31.4361C13.642 30.3799 15.4443 30.0072 17.4331 30.0848L17.2778 28.9355C12.8962 29.9761 8.79426 29.6965 5.54691 27.4289C3.4338 25.9845 0.621502 22.4277 0 18.6846C8.70103 16.6966 16.563 20.1135 18.3343 27.1494L20.7737 26.233L20.1056 25.6583C16.0969 22.5986 14.6985 18.3429 15.7395 13.0777C16.2678 10.4218 17.0758 8.4803 18.3188 6.35246C18.8004 5.52929 21.2398 1.73956 22.3275 1.18042C23.3996 1.73956 25.8545 5.52929 26.3362 6.35246C27.5636 8.4803 28.3871 10.4218 28.9154 13.0777C29.9564 18.3429 28.5425 22.5986 24.5338 25.6583L23.8812 26.233L26.3206 27.1494C28.0764 20.1135 35.9539 16.6966 44.6394 18.6846C44.0179 22.4277 41.2056 25.9845 39.108 27.4289C35.8607 29.6965 31.7432 29.9761 27.3772 28.9355L27.2218 30.0848C29.1951 30.0072 30.9974 30.3799 32.5201 31.4361C33.1882 31.902 33.2038 31.9486 33.732 32.4767C34.2603 33.0048 34.2914 32.9893 34.7109 33.6105C35.5965 34.8686 36.4045 37.043 36.2957 38.6117C32.5823 39.5436 28.558 38.3166 26.8178 35.1792C26.1808 34.0299 26.072 32.4922 25.6991 31.8244L23.8035 32.4457C24.8601 33.4241 25.7768 34.3871 26.4138 36.0335C28.0453 40.227 26.8023 44.4206 24.0366 47.7133C23.5083 48.3501 23.0267 48.552 22.4518 49.2198C22.4052 49.2043 22.3741 49.1888 22.3275 49.1733ZM22.3275 3.29273C21.3486 4.10037 19.7482 6.67863 18.9869 8.07648C16.9049 11.8973 15.8949 17.1936 18.0702 21.2318C18.6761 22.3967 19.1112 22.7694 19.9347 23.5926C21.0378 24.6954 21.6749 25.2545 22.3275 25.2545C22.9645 25.2545 23.6015 24.6954 24.7203 23.5926C25.5437 22.7694 25.9633 22.3967 26.5848 21.2318C28.7445 17.1936 27.7345 11.8973 25.6525 8.07648C24.8912 6.67863 23.2908 4.10037 22.3275 3.29273ZM22.3275 27.1804L22.2653 27.1649L18.8004 28.5627C18.7849 28.5317 18.7228 28.6093 18.6917 28.6249L18.8781 30.2091C19.1578 30.3644 21.939 31.374 22.3275 31.4982C22.7004 31.374 25.4816 30.3644 25.7613 30.2091L25.9477 28.6249C25.9166 28.6093 25.87 28.5317 25.839 28.5627L22.3741 27.1649L22.3275 27.1804ZM16.9049 27.5842C16.5009 24.8973 14.1392 22.2414 11.7464 21.092C8.79426 19.6631 5.40707 19.3369 1.83343 19.8029C2.3151 22.2258 4.77003 25.3166 6.94529 26.6368C10.4102 28.7181 12.9117 28.0968 16.9049 27.5842ZM27.7345 27.5842C28.1541 24.8973 30.5158 22.2414 32.9085 21.092C35.8607 19.6631 39.2479 19.3369 42.806 19.8029C42.3243 22.2258 39.8849 25.3166 37.6941 26.6368C34.2448 28.7181 31.7432 28.0968 27.7345 27.5842Z"/>
<path fill-rule="evenodd" clip-rule="evenodd" d="M52.5635 0.341675H54.6456V51.9844H52.5635V0.341675Z"/>
</svg>
