<svg width="12" height="12" viewBox="0 0 12 12" xmlns="http://www.w3.org/2000/svg">
<path d="M6.87336 6.00839L11.8052 1.09803C12.0416 0.863707 12.0416 0.484382 11.8052 0.250659C11.5694 0.0163386 11.1863 0.0163386 10.9504 0.250659L6.02281 5.15684L1.04963 0.177534C0.813779 -0.0591778 0.430699 -0.0591778 0.194849 0.177534C-0.041 0.414843 -0.041 0.798951 0.194849 1.03566L5.1644 6.01138L0.176887 10.9769C-0.0589623 11.2112 -0.0589623 11.5905 0.176887 11.8243C0.412736 12.0586 0.795817 12.0586 1.03167 11.8243L6.01495 6.86294L10.9683 11.8225C11.2042 12.0592 11.5873 12.0592 11.8231 11.8225C12.059 11.5852 12.059 11.201 11.8231 10.9643L6.87336 6.00839Z"/>
</svg>
