<svg width="41" height="41" viewBox="0 0 41 41" fill="none" xmlns="http://www.w3.org/2000/svg">
<circle cx="20.5" cy="20.5" r="20.5" fill="#F5EAE4"/>
<path d="M29.64 31.2667H28.56V29.8H26.76V26.0519C26.76 25.0619 26.2769 24.1423 25.468 23.5931L21.6491 21L25.468 18.4069C26.2769 17.8577 26.76 16.9381 26.76 15.9481V12.2H28.56V10.7333H29.64C29.8387 10.7333 30 10.5694 30 10.3667C30 10.1639 29.8387 10 29.64 10H28.56H28.2H13.8H13.44H12.36C12.1613 10 12 10.1639 12 10.3667C12 10.5694 12.1613 10.7333 12.36 10.7333H13.44V12.2H15.24V15.9481C15.24 16.9381 15.7231 17.8577 16.532 18.4069L20.3509 21L16.532 23.5931C15.7231 24.1423 15.24 25.0619 15.24 26.0519V29.8H13.44V31.2667H12.36C12.1613 31.2667 12 31.4306 12 31.6333C12 31.8361 12.1613 32 12.36 32H13.44H13.8H28.2H28.56H29.64C29.8387 32 30 31.8361 30 31.6333C30 31.4306 29.8387 31.2667 29.64 31.2667ZM14.16 11.4667V10.7333H27.84V11.4667H26.76H15.24H14.16ZM16.9313 17.7968C16.3232 17.3836 15.96 16.6924 15.96 15.9481V12.2H26.04V15.9481C26.04 16.6924 25.6768 17.3836 25.0687 17.7968L21 20.5593L16.9313 17.7968ZM15.96 26.0519C15.96 25.3076 16.3232 24.6164 16.9313 24.2032L21 21.4407L25.0687 24.2032C25.6768 24.6164 26.04 25.3076 26.04 26.0519V29.8H15.96V26.0519ZM14.16 30.5333H15.24H26.76H27.84V31.2667H14.16V30.5333Z" fill="black"/>
<path d="M17.7301 16.5765C17.5234 16.436 17.3999 16.201 17.3999 15.948V15.1333C17.3999 14.9305 17.2387 14.7666 17.0399 14.7666C16.8412 14.7666 16.6799 14.9305 16.6799 15.1333V15.948C16.6799 16.447 16.9233 16.9101 17.3308 17.1866L19.0005 18.3203C19.0617 18.3618 19.1312 18.3819 19.1999 18.3819C19.3162 18.3819 19.4303 18.3247 19.4998 18.2188C19.61 18.0501 19.5653 17.8228 19.4001 17.7102L17.7301 16.5765Z" fill="black"/>
<path d="M24.6691 25.1289L22.9995 23.9952C22.8339 23.8826 22.6107 23.9281 22.5001 24.0967C22.39 24.2654 22.4346 24.4927 22.5999 24.6053L24.2695 25.739C24.4765 25.8795 24.6 26.1141 24.6 26.3675V27.1822C24.6 27.385 24.7613 27.5489 24.96 27.5489C25.1587 27.5489 25.32 27.385 25.32 27.1822V26.3675C25.32 25.8681 25.0767 25.4054 24.6691 25.1289Z" fill="black"/>
</svg>
