<svg width="258" height="17" viewBox="0 0 258 17" xmlns="http://www.w3.org/2000/svg">
<path d="M134.462 3.19403C135.617 2.65267 136.878 2.21958 138.139 1.89476C139.872 1.46167 141.605 1.19099 143.391 1.02858C146.963 0.81204 150.324 1.51581 153.581 3.03162C156.68 4.49329 159.463 6.44219 162.037 8.82417C163.665 10.34 165.241 11.9641 166.502 13.8588C166.554 13.9671 166.659 14.0212 166.817 14.0212C166.922 14.0212 167.027 14.0212 167.132 14.0212C195.6 14.0212 224.068 14.0212 252.536 14.0212C253.114 14.0212 253.167 13.913 253.061 13.3175C253.061 13.2092 253.009 13.1551 252.904 13.1009C252.799 13.1009 252.641 13.1009 252.536 13.1009C224.278 13.1009 196.02 13.1009 167.762 13.1009C167.395 13.1009 167.184 12.9927 166.922 12.6678C164.033 8.93245 160.566 5.84669 156.522 3.46471C153.896 1.89476 151.112 0.81204 148.066 0.324816C146.28 0.0541363 144.494 -1.90735e-06 142.708 0.108271C140.345 0.270679 138.034 0.757904 135.828 1.56994C133.464 2.43612 131.258 3.68125 129.262 5.25119C129.052 5.4136 128.894 5.4136 128.684 5.25119C125.428 2.59853 121.699 1.02858 117.654 0.37895C116.183 0.108271 114.66 0 113.137 0C109.986 0 106.939 0.757904 104.05 2.05717C100.794 3.51884 97.9051 5.57601 95.2263 8.06627C93.6506 9.52794 92.2325 11.0979 90.9193 12.7761C90.7618 12.9927 90.6042 13.0468 90.3416 13.0468C84.1963 13.0468 78.0509 13.0468 71.9056 13.0468C49.7404 13.0468 27.6277 13.0468 5.46251 13.0468C4.88475 13.1009 4.83222 13.2092 4.93727 13.8588C4.93727 13.9671 4.9898 14.0212 5.09485 14.0212C5.19989 14.0212 5.30494 14.0212 5.40999 14.0212C33.9306 14.0212 62.4512 14.0212 90.9719 14.0212C91.287 14.0212 91.4446 13.913 91.6547 13.6423C92.7577 12.0182 94.1233 10.6107 95.489 9.3114C97.0647 7.79559 98.798 6.38805 100.636 5.19706C103.473 3.35643 106.467 1.9489 109.776 1.3534C111.351 1.02858 112.98 0.974447 114.608 1.08272C117.129 1.24513 119.545 1.73235 121.961 2.54439C122.486 2.7068 123.012 2.92335 123.537 3.19403C122.749 3.08575 121.909 2.97748 121.121 2.92335C119.493 2.81507 117.917 3.03162 116.394 3.46471C114.24 4.11434 112.349 5.2512 110.563 6.55046C108.725 7.90386 106.992 9.36554 105.101 10.7189C103.105 12.1806 101.004 13.4799 98.5879 14.2378C97.3798 14.6167 96.1192 14.8333 94.8587 14.9415C93.6506 15.0498 92.39 15.0498 91.182 15.0498C60.9806 15.0498 30.7792 15.0498 0.577766 15.0498C-0.0525242 15.0498 0.0525242 14.9957 0.0525242 15.5912C0.0525242 15.9701 0.0525242 16.295 0.0525242 16.6739C-0.0525242 16.9446 0 16.9987 0.210097 16.9987C0.262621 16.9987 0.367669 16.9987 0.472718 16.9987C30.7266 16.9987 60.928 16.9987 91.182 16.9987C92.7052 16.9987 94.2284 16.9446 95.6991 16.8363C98.1152 16.6198 100.479 16.2408 102.737 15.2122C104.471 14.4543 105.994 13.3175 107.359 11.9641C108.515 10.7731 109.565 9.52794 110.721 8.33695C112.664 6.27978 114.87 4.70984 117.654 4.16847C119.125 3.89779 120.596 3.84366 122.066 4.00607C123.537 4.16848 124.902 4.43915 126.268 4.98052C126.898 5.25119 127.476 5.57601 128.001 5.95496C128.264 6.11737 128.264 6.11737 128.001 6.33392C127.056 7.20009 126.216 8.06627 125.585 9.20313C125.48 9.41967 125.375 9.58208 125.375 9.79862C125.375 9.9069 125.323 10.0152 125.428 10.0693C125.533 10.1234 125.638 10.0693 125.69 10.0152C126.006 9.79862 126.216 9.52794 126.426 9.25726C127.109 8.44522 127.844 7.68732 128.632 6.92941C128.789 6.767 128.947 6.71287 129.157 6.92941C129.997 7.68732 130.785 8.49936 131.521 9.41967C131.678 9.58208 131.783 9.74449 131.993 9.85276C132.046 9.9069 132.151 9.96103 132.256 9.9069C132.361 9.85276 132.361 9.74449 132.361 9.63622C132.308 9.14899 132.098 8.7159 131.783 8.39109C131.205 7.63318 130.523 6.92941 129.84 6.33392C129.682 6.17151 129.682 6.11737 129.84 5.95496C131.205 4.98052 132.781 4.43915 134.409 4.16847C135.565 3.95193 136.773 3.89779 137.928 3.89779C140.87 3.95193 143.496 4.92638 145.755 6.92941C147.015 8.01213 148.066 9.25726 149.169 10.5024C150.744 12.2889 152.425 13.8588 154.526 14.8874C156.259 15.7536 158.045 16.2408 159.936 16.5656C161.512 16.7822 163.14 16.8904 164.716 16.9446C166.344 16.9987 167.972 16.9987 169.601 16.9987C198.909 16.9987 228.165 16.9987 257.474 16.9987C258.051 16.9987 257.999 17.0529 257.999 16.4574C257.999 16.0784 257.999 15.7536 257.999 15.3746C257.999 15.1581 257.946 15.104 257.736 15.104C257.631 15.104 257.526 15.104 257.421 15.104C227.115 15.104 196.808 15.104 166.502 15.104C165.136 15.104 163.718 15.104 162.352 14.9415C160.619 14.7791 158.991 14.2378 157.415 13.534C155.156 12.5054 153.161 10.9896 151.217 9.47381C149.484 8.12041 147.751 6.71287 145.912 5.52188C144.021 4.33088 142.078 3.46471 139.872 3.13989C138.611 2.92335 137.351 2.92335 136.09 3.03162C135.512 3.08575 134.987 3.13989 134.462 3.19403Z"/>
<path d="M157.467 11.0437C158.465 11.0437 159.411 10.773 160.304 10.3399C160.461 10.2858 160.514 10.1775 160.461 10.0151C159.726 8.22863 158.623 6.82109 156.89 6.00905C156.364 5.73837 156.364 5.73837 156.312 6.33387C156.312 6.87523 156.049 7.14591 155.524 7.09177C154.789 7.03763 154.211 6.71282 153.581 6.33387C152.74 5.84664 152.005 5.19701 151.217 4.65565C149.221 3.19397 147.015 2.21953 144.546 1.94885C144.021 1.89471 143.496 1.89471 142.971 1.84057C142.918 1.84057 142.918 1.84057 142.866 1.84057C142.656 1.84057 142.393 2.05712 142.446 2.21953C142.498 2.49021 142.708 2.43607 142.866 2.43607C143.759 2.43607 144.652 2.59848 145.492 2.86916C146.753 3.30225 147.856 4.11429 148.853 5.0346C149.746 5.84664 150.587 6.76695 151.48 7.68727C152.32 8.55344 153.16 9.41962 154.211 10.0693C155.209 10.6647 156.312 11.0437 157.467 11.0437Z"/>
<path d="M100.006 10.9897C102.054 10.9897 103.368 10.3942 104.576 9.4198C105.469 8.71603 106.256 7.84986 107.044 7.03782C107.99 6.06337 108.935 5.03478 110.038 4.22274C111.194 3.35656 112.402 2.76107 113.82 2.54452C114.188 2.49039 114.608 2.43625 114.975 2.43625C115.028 2.43625 115.08 2.43625 115.133 2.43625C115.291 2.43625 115.501 2.43625 115.501 2.21971C115.501 2.00316 115.291 1.84075 115.08 1.84075C114.713 1.84075 114.293 1.84076 113.925 1.89489C112.244 2.0573 110.616 2.43625 109.093 3.19416C107.885 3.78965 106.782 4.60169 105.679 5.41373C104.891 6.00923 104.103 6.55059 103.21 6.87541C102.895 6.98368 102.632 7.09195 102.265 7.09195C101.792 7.09195 101.529 6.82127 101.529 6.33405C101.529 5.73855 101.529 5.73855 101.004 5.95509C99.5858 6.60473 98.5879 7.68745 97.8525 9.04085C97.695 9.31153 97.5899 9.63635 97.4324 9.90703C97.3273 10.0694 97.3798 10.1777 97.5899 10.286C98.4303 10.7732 99.4808 10.9897 100.006 10.9897Z"/>
<path d="M121.226 5.6302C122.486 5.57606 123.694 5.90088 124.85 6.49638C124.955 6.55051 125.06 6.60465 125.218 6.60465C125.375 6.65878 125.48 6.60465 125.533 6.44224C125.585 6.27983 125.533 6.17156 125.428 6.11742C125.218 5.95501 125.008 5.84674 124.745 5.68433C123.327 4.98057 121.856 4.76402 120.28 4.87229C118.022 5.08884 115.973 5.73847 113.977 6.82119C112.402 7.68737 111.036 8.82422 110.091 10.4483C109.145 12.0183 108.883 13.6965 109.04 15.483C109.04 15.6454 109.093 15.8078 109.093 15.9702C109.093 16.3491 109.303 16.5115 109.618 16.6198C111.036 16.9988 112.402 16.9446 113.715 16.3491C114.083 16.1867 114.083 16.1867 113.82 15.8619C112.927 14.8875 112.454 13.6965 112.559 12.3431C112.664 11.1521 113.137 10.1235 113.872 9.20318C115.501 7.14601 117.654 6.00915 120.175 5.6302C120.28 5.6302 120.385 5.57606 120.49 5.57606C120.701 5.6302 120.963 5.6302 121.226 5.6302Z"/>
<path d="M146.595 16.8904C147.278 16.9445 147.961 16.7821 148.591 16.5656C148.748 16.5114 148.801 16.4573 148.854 16.2408C149.326 13.3174 148.591 10.773 146.542 8.71584C145.334 7.52485 143.864 6.65867 142.288 6.00904C140.45 5.25114 138.559 4.81805 136.615 4.87218C135.25 4.92632 133.937 5.25114 132.729 6.00904C132.676 6.06318 132.624 6.06318 132.571 6.11731C132.466 6.17145 132.413 6.27972 132.466 6.38799C132.466 6.49627 132.571 6.5504 132.676 6.60454C132.886 6.65867 133.044 6.5504 133.254 6.44213C133.937 6.06318 134.672 5.7925 135.407 5.68423C137.036 5.41355 138.664 5.63009 140.187 6.27972C141.973 7.03763 143.444 8.17448 144.494 9.79856C145.019 10.6647 145.387 11.5851 145.387 12.6678C145.387 13.9129 144.967 14.9415 144.231 15.8077C144.179 15.8618 144.126 15.9701 144.074 16.0242C143.916 16.1866 143.969 16.2408 144.126 16.349C144.757 16.6738 145.439 16.8363 146.175 16.8904C146.28 16.8904 146.437 16.8904 146.595 16.8904Z"/>
<path d="M126.741 13.6964C126.793 13.9671 126.846 14.1836 126.951 14.4543C127.003 14.6708 127.109 14.8874 127.319 15.0498C127.371 15.1039 127.424 15.2122 127.529 15.1581C127.634 15.1039 127.581 14.9956 127.581 14.9415C127.634 14.725 127.634 14.4543 127.739 14.2377C127.844 14.2919 127.844 14.4002 127.896 14.5084C128.054 14.9415 128.212 15.3746 128.527 15.7536C128.894 16.1866 129.104 16.1866 129.472 15.7536C129.735 15.3746 129.892 14.9956 130.05 14.5626C130.102 14.4543 130.102 14.4002 130.155 14.2377C130.312 14.4543 130.312 14.725 130.365 14.9415C130.365 15.0498 130.365 15.2122 130.47 15.2122C130.575 15.2663 130.68 15.1039 130.733 15.0498C130.995 14.725 131.1 14.346 131.153 13.9671C131.153 13.9129 131.153 13.8588 131.153 13.8047C131.205 13.8047 131.205 13.8047 131.205 13.8047C131.31 13.8588 131.363 14.0212 131.521 13.9671C131.626 13.9129 131.678 13.7505 131.678 13.6422C131.783 12.7219 131.731 11.8558 131.205 11.0979C130.68 10.3399 129.945 10.1775 129.157 10.6648C128.999 10.773 128.894 10.773 128.737 10.6648C127.844 10.1234 126.951 10.3941 126.478 11.4768C126.163 12.1806 126.111 12.9385 126.216 13.6964C126.321 13.9129 126.426 13.9129 126.741 13.6964Z"/>
<path d="M139.662 10.2858C139.662 10.9896 139.557 11.6392 139.347 12.2888C139.294 12.5054 139.294 12.7219 139.452 12.8843C139.872 13.534 140.502 13.8046 141.185 13.9129C142.078 14.0212 142.025 14.1295 142.183 13.1009C142.446 11.5851 141.973 10.2858 140.975 9.14894C139.924 7.95794 138.611 7.20004 137.036 6.82109C136.878 6.76695 136.72 6.76695 136.51 6.76695C136.353 6.76695 136.248 6.87522 136.248 7.09177C136.248 7.25418 136.353 7.36245 136.51 7.36245C136.878 7.41658 137.246 7.41658 137.613 7.47072C139.032 7.84967 139.662 8.71585 139.662 10.2858Z"/>
<path d="M115.606 12.3429C115.606 12.776 115.711 13.2632 115.868 13.6963C115.921 13.8046 115.921 13.9128 116.078 13.9128C116.971 13.9128 117.812 13.6963 118.389 12.9384C118.547 12.7218 118.6 12.4512 118.547 12.1805C118.337 11.3684 118.179 10.5564 118.284 9.69023C118.442 8.4451 119.125 7.6872 120.333 7.41652C120.648 7.36238 120.963 7.30824 121.278 7.30824C121.436 7.30824 121.646 7.25411 121.646 7.03756C121.646 6.82102 121.488 6.71275 121.278 6.71275C120.753 6.71275 120.28 6.87516 119.755 7.0917C118.284 7.6872 117.024 8.66165 116.236 10.0692C115.816 10.8271 115.658 11.5309 115.606 12.3429Z"/>
<path d="M128.999 9.74438C129.42 9.74438 129.735 9.36543 129.735 8.98648C129.735 8.55339 129.367 8.22857 128.999 8.22857C128.579 8.22857 128.264 8.60753 128.264 9.04062C128.211 9.41957 128.579 9.74438 128.999 9.74438Z"/>
</svg>
