<svg width="59" height="58" viewBox="0 0 59 58" fill="none" xmlns="http://www.w3.org/2000/svg">
<rect width="58.9531" height="58" fill="black" fill-opacity="0"/>
<rect width="58.9531" height="58" rx="22" fill="#F5EAE4"/>
<path d="M41.4845 0H17.1897C7.71131 0 0 7.6227 0 16.9922V41.0078C0 50.3773 7.71131 58 17.1897 58H41.4845C50.963 58 58.6743 50.3773 58.6743 41.0078V16.9922C58.6743 7.6227 50.963 0 41.4845 0ZM56.3823 41.0078C56.3823 49.128 49.6992 55.7344 41.4845 55.7344H17.1897C8.9751 55.7344 2.29196 49.128 2.29196 41.0078V16.9922C2.29196 8.87196 8.9751 2.26562 17.1897 2.26562H41.4845C49.6992 2.26562 56.3823 8.87196 56.3823 16.9922V41.0078Z" fill="black"/>
<path d="M47.4655 37.8237L46.9513 36.993C45.9463 35.3697 44.7299 33.8812 43.3362 32.5686L41.6169 30.9496C41.4535 30.7957 41.429 30.5513 41.5586 30.3686L43.9062 27.0605C44.2448 26.5834 44.5572 26.081 44.8348 25.5672L46.8409 21.8553C47.1906 21.2084 47.1719 20.4464 46.7908 19.817C46.41 19.1877 45.7396 18.8114 44.9979 18.8106L40.6557 18.8057C40.6548 18.8057 40.654 18.8057 40.6531 18.8057C39.7434 18.8057 38.9195 19.3378 38.554 20.1616L38.0941 21.1979C36.9207 23.8419 35.319 26.2527 33.332 28.3664V20.8008C33.332 19.7002 32.4264 18.8047 31.3135 18.8047H25.1637C24.1539 18.8047 23.3325 19.6171 23.3325 20.6157C23.3325 20.9971 23.4513 21.3624 23.6761 21.6719L24.1064 22.2647C24.5283 22.8457 24.7513 23.5309 24.7513 24.2463V29.7745C23.9929 28.9035 23.0696 27.7206 22.2879 26.3607C21.0909 24.2781 20.2329 21.8496 19.828 20.5873C19.4859 19.5211 18.4964 18.8047 17.3654 18.8047H12.9676C12.3469 18.8047 11.7762 19.0853 11.4012 19.5746C11.0265 20.064 10.908 20.6836 11.0764 21.2746L11.8968 24.154C12.3995 25.919 13.0907 27.6373 13.9511 29.2611C14.2107 29.7513 14.8231 29.9406 15.319 29.6837C15.8149 29.4268 16.0062 28.8211 15.7464 28.3308C14.9514 26.83 14.3126 25.2418 13.8478 23.6105L13.0497 20.8092H17.3655C17.6091 20.8092 17.8222 20.9635 17.8959 21.1933C18.3249 22.5306 19.237 25.109 20.5259 27.3511C21.5833 29.1908 22.8663 30.7234 23.7565 31.6852C24.2442 32.2121 24.9945 32.3855 25.6681 32.1266C26.3425 31.8675 26.7783 31.2378 26.7783 30.5225V24.2463C26.7783 23.1089 26.4236 22.0193 25.753 21.0956L25.545 20.8092H31.305V28.8466C31.305 29.4346 31.6036 29.9753 32.1037 30.2932C32.6038 30.6112 33.2251 30.6552 33.7661 30.4109L34.184 30.2223C34.3765 30.1355 34.5475 30.0144 34.6925 29.8621C36.892 27.5524 38.6609 24.9083 39.9502 22.0033L40.4101 20.967C40.4524 20.8716 40.5478 20.8101 40.6531 20.8101L44.9956 20.815C45.0104 20.815 45.0328 20.8151 45.0518 20.8465C45.071 20.8781 45.0603 20.8975 45.0534 20.9105L43.0474 24.6223C42.8081 25.065 42.5388 25.4979 42.2471 25.909L39.8995 29.2172C39.1889 30.2186 39.3234 31.5577 40.2192 32.4013L41.9384 34.0203C43.2047 35.2126 44.3097 36.565 45.2227 38.0396L45.7369 38.8704C45.7493 38.8903 45.7869 38.9512 45.7401 39.0338C45.6932 39.1165 45.6211 39.1165 45.5975 39.1165H41.8488C41.3671 39.1165 40.8982 38.9207 40.5625 38.5792L36.814 34.7677C35.9307 33.8695 34.8097 33.2527 33.5722 32.9841C33.0175 32.8635 32.4449 32.9963 32.002 33.3486C31.5591 33.7009 31.3051 34.2251 31.3051 34.7871V38.532C31.3051 38.8543 31.04 39.1166 30.714 39.1166C27.8092 39.1166 24.9387 38.1555 22.6313 36.4103C21.7018 35.7072 20.8152 34.9318 19.9962 34.1058C19.6044 33.7107 18.9628 33.7042 18.563 34.0917C18.1633 34.4793 18.157 35.1139 18.5488 35.5091C19.4349 36.4029 20.3941 37.2418 21.3999 38.0024C24.0587 40.0135 27.3665 41.1211 30.7139 41.1211C32.1574 41.1211 33.332 39.9596 33.332 38.532V34.9887C34.1037 35.1925 34.8017 35.5967 35.3609 36.1654L39.1093 39.9768C39.8244 40.704 40.8229 41.1211 41.8488 41.1211H45.5975C46.3893 41.1211 47.1215 40.6967 47.5084 40.0136C47.8953 39.3306 47.8789 38.4914 47.4655 37.8237Z" fill="black"/>
<path d="M16.0502 31.4416L16.0375 31.424C15.6686 30.9156 14.9528 30.7988 14.4384 31.1635C13.9241 31.5281 13.806 32.2358 14.1748 32.7442C14.1753 32.745 14.1821 32.7544 14.1826 32.7551L15.1189 32.1017L14.1875 32.7618C14.4113 33.0703 14.763 33.2346 15.1199 33.2346C15.3509 33.2346 15.5844 33.1656 15.7866 33.0223C16.3009 32.6577 16.419 31.95 16.0502 31.4416Z" fill="black"/>
<path d="M28.0609 50.2969H18.7212C18.0884 50.2969 17.5752 50.804 17.5752 51.4297C17.5752 52.0553 18.0884 52.5625 18.7212 52.5625H28.0609C28.6939 52.5625 29.2069 52.0553 29.2069 51.4297C29.2069 50.804 28.6937 50.2969 28.0609 50.2969Z" fill="black"/>
<path d="M33.2752 50.2969H33.2616C32.6288 50.2969 32.1156 50.804 32.1156 51.4297C32.1156 52.0553 32.6288 52.5625 33.2616 52.5625H33.2752C33.9081 52.5625 34.4212 52.0553 34.4212 51.4297C34.4212 50.804 33.908 50.2969 33.2752 50.2969Z" fill="black"/>
</svg>
